CommissionerFlair-Black.ufo
<glyph name="dollar" format="2">
  <advance width="588"/>
  <unicode hex="0024"/>
  <outline>
    <contour>
      <point x="281" y="-15" type="curve" smooth="yes"/>
      <point x="482" y="-15"/>
      <point x="569" y="65"/>
      <point x="569" y="207" type="curve" smooth="yes"/>
      <point x="569" y="325"/>
      <point x="516" y="376"/>
      <point x="355" y="420" type="curve" smooth="yes"/>
      <point x="297" y="436"/>
      <point x="272" y="447"/>
      <point x="272" y="476" type="curve" smooth="yes"/>
      <point x="272" y="503"/>
      <point x="295" y="515"/>
      <point x="332" y="515" type="curve" smooth="yes"/>
      <point x="363" y="515"/>
      <point x="436" y="496"/>
      <point x="517" y="460" type="curve"/>
      <point x="532" y="662" type="line"/>
      <point x="480" y="673"/>
      <point x="366" y="700"/>
      <point x="282" y="700" type="curve" smooth="yes"/>
      <point x="104" y="700"/>
      <point x="25" y="612"/>
      <point x="25" y="478" type="curve" smooth="yes"/>
      <point x="25" y="352"/>
      <point x="94" y="301"/>
      <point x="212" y="270" type="curve" smooth="yes"/>
      <point x="277" y="253"/>
      <point x="323" y="240"/>
      <point x="323" y="207" type="curve" smooth="yes"/>
      <point x="323" y="180"/>
      <point x="304" y="166"/>
      <point x="261" y="166" type="curve" smooth="yes"/>
      <point x="207" y="166"/>
      <point x="118" y="192"/>
      <point x="53" y="223" type="curve"/>
      <point x="37" y="17" type="line"/>
      <point x="88" y="8"/>
      <point x="169" y="-15"/>
    </contour>
    <contour>
      <point x="211" y="-137" type="curve"/>
      <point x="393" y="-137" type="line"/>
      <point x="385" y="-55"/>
      <point x="382" y="19"/>
      <point x="382" y="93" type="curve"/>
      <point x="222" y="93" type="line"/>
      <point x="222" y="19"/>
      <point x="219" y="-55"/>
    </contour>
    <contour>
      <point x="222" y="604" type="curve"/>
      <point x="382" y="604" type="line"/>
      <point x="382" y="668"/>
      <point x="386" y="733"/>
      <point x="393" y="803" type="curve"/>
      <point x="211" y="803" type="line"/>
      <point x="218" y="733"/>
      <point x="222" y="668"/>
    </contour>
  </outline>
</glyph>
<glyph name="percent" format="2">
  <advance width="1004"/>
  <unicode hex="0025"/>
  <outline>
    <contour>
      <point x="166" y="0" type="curve"/>
      <point x="392" y="0" type="line"/>
      <point x="422" y="73"/>
      <point x="460" y="139"/>
      <point x="516" y="230" type="curve"/>
      <point x="667" y="477" type="line"/>
      <point x="723" y="570"/>
      <point x="767" y="638"/>
      <point x="827" y="713" type="curve"/>
      <point x="603" y="713" type="line"/>
      <point x="572" y="638"/>
      <point x="531" y="570"/>
      <point x="475" y="477" type="curve"/>
      <point x="324" y="230" type="line"/>
      <point x="268" y="139"/>
      <point x="225" y="73"/>
    </contour>
    <contour>
      <point x="232" y="354" type="curve" smooth="yes"/>
      <point x="366" y="354"/>
      <point x="446" y="423"/>
      <point x="446" y="544" type="curve" smooth="yes"/>
      <point x="446" y="649"/>
      <point x="366" y="729"/>
      <point x="233" y="729" type="curve" smooth="yes"/>
      <point x="100" y="729"/>
      <point x="20" y="649"/>
      <point x="20" y="544" type="curve" smooth="yes"/>
      <point x="20" y="423"/>
      <point x="100" y="354"/>
    </contour>
    <contour>
      <point x="233" y="485" type="curve"/>
      <point x="203" y="490"/>
      <point x="179" y="509"/>
      <point x="179" y="541" type="curve" smooth="yes"/>
      <point x="179" y="569"/>
      <point x="201" y="591"/>
      <point x="233" y="597" type="curve"/>
      <point x="265" y="591"/>
      <point x="287" y="567"/>
      <point x="287" y="541" type="curve" smooth="yes"/>
      <point x="287" y="509"/>
      <point x="264" y="490"/>
    </contour>
    <contour>
      <point x="760" y="-16" type="curve" smooth="yes"/>
      <point x="894" y="-16"/>
      <point x="974" y="53"/>
      <point x="974" y="174" type="curve" smooth="yes"/>
      <point x="974" y="279"/>
      <point x="894" y="359"/>
      <point x="761" y="359" type="curve" smooth="yes"/>
      <point x="628" y="359"/>
      <point x="548" y="279"/>
      <point x="548" y="174" type="curve" smooth="yes"/>
      <point x="548" y="53"/>
      <point x="628" y="-16"/>
    </contour>
    <contour>
      <point x="760" y="115" type="curve"/>
      <point x="730" y="120"/>
      <point x="706" y="139"/>
      <point x="706" y="171" type="curve" smooth="yes"/>
      <point x="706" y="199"/>
      <point x="728" y="221"/>
      <point x="760" y="227" type="curve"/>
      <point x="792" y="221"/>
      <point x="814" y="197"/>
      <point x="814" y="171" type="curve" smooth="yes"/>
      <point x="814" y="139"/>
      <point x="791" y="120"/>
    </contour>
  </outline>
</glyph>
<glyph name="ampersand" format="2">
  <advance width="807"/>
  <unicode hex="0026"/>
  <outline>
    <contour>
      <point x="513" y="0" type="curve"/>
      <point x="816" y="0" type="line"/>
      <point x="726" y="82"/>
      <point x="652" y="164"/>
      <point x="579" y="246" type="curve"/>
      <point x="386" y="464" type="line" smooth="yes"/>
      <point x="354" y="500"/>
      <point x="338" y="522"/>
      <point x="338" y="552" type="curve" smooth="yes"/>
      <point x="338" y="577"/>
      <point x="358" y="594"/>
      <point x="380" y="598" type="curve"/>
      <point x="404" y="594"/>
      <point x="419" y="576"/>
      <point x="419" y="550" type="curve" smooth="yes"/>
      <point x="419" y="527"/>
      <point x="390" y="489"/>
      <point x="365" y="465" type="curve"/>
      <point x="452" y="369" type="line"/>
      <point x="496" y="409"/>
      <point x="592" y="475"/>
      <point x="592" y="561" type="curve" smooth="yes"/>
      <point x="592" y="668"/>
      <point x="503" y="729"/>
      <point x="369" y="729" type="curve" smooth="yes"/>
      <point x="236" y="729"/>
      <point x="128" y="669"/>
      <point x="128" y="544" type="curve" smooth="yes"/>
      <point x="128" y="480"/>
      <point x="158" y="425"/>
      <point x="206" y="370" type="curve" smooth="yes"/>
      <point x="411" y="136" type="line"/>
      <point x="451" y="91"/>
      <point x="492" y="45"/>
    </contour>
    <contour>
      <point x="250" y="-14" type="curve" smooth="yes"/>
      <point x="323" y="-14"/>
      <point x="390" y="15"/>
      <point x="457" y="69" type="curve"/>
      <point x="473" y="69" type="line"/>
      <point x="473" y="94" type="line"/>
      <point x="384" y="186" type="line"/>
      <point x="364" y="169"/>
      <point x="326" y="155"/>
      <point x="306" y="155" type="curve"/>
      <point x="259" y="158"/>
      <point x="235" y="186"/>
      <point x="235" y="223" type="curve" smooth="yes"/>
      <point x="235" y="249"/>
      <point x="247" y="278"/>
      <point x="278" y="301" type="curve"/>
      <point x="187" y="412" type="line"/>
      <point x="95" y="371"/>
      <point x="20" y="302"/>
      <point x="20" y="186" type="curve" smooth="yes"/>
      <point x="20" y="71"/>
      <point x="97" y="-14"/>
    </contour>
    <contour>
      <point x="612" y="165" type="line"/>
      <point x="667" y="222"/>
      <point x="723" y="279"/>
      <point x="788" y="328" type="curve"/>
      <point x="591" y="457" type="line"/>
      <point x="566" y="394"/>
      <point x="531" y="338"/>
      <point x="495" y="283" type="curve"/>
    </contour>
  </outline>
</glyph>
<glyph name="parenleft" format="2">
  <advance width="441"/>
  <unicode hex="0028"/>
  <outline>
    <contour>
      <point x="264" y="-145" type="curve"/>
      <point x="436" y="-83" type="line"/>
      <point x="335" y="30"/>
      <point x="254" y="144"/>
      <point x="254" y="323" type="curve" smooth="yes"/>
      <point x="254" y="502"/>
      <point x="335" y="616"/>
      <point x="436" y="729" type="curve"/>
      <point x="264" y="791" type="line"/>
      <point x="169" y="709"/>
      <point x="30" y="543"/>
      <point x="30" y="323" type="curve" smooth="yes"/>
      <point x="30" y="103"/>
      <point x="169" y="-63"/>
    </contour>
  </outline>
</glyph>
<glyph name="asterisk" format="2">
  <advance width="513"/>
  <unicode hex="002A"/>
  <outline>
    <contour>
      <point x="423" y="334" type="curve"/>
      <point x="496" y="461" type="line"/>
      <point x="421" y="488"/>
      <point x="349" y="518"/>
      <point x="277" y="549" type="curve"/>
      <point x="213" y="596"/>
      <point x="151" y="644"/>
      <point x="90" y="695" type="curve"/>
      <point x="17" y="568" type="line"/>
      <point x="92" y="541"/>
      <point x="165" y="511"/>
      <point x="237" y="479" type="curve"/>
      <point x="300" y="433"/>
      <point x="362" y="384"/>
    </contour>
    <contour>
      <point x="91" y="334" type="line"/>
      <point x="151" y="385"/>
      <point x="214" y="433"/>
      <point x="277" y="480" type="curve"/>
      <point x="349" y="511"/>
      <point x="422" y="541"/>
      <point x="496" y="569" type="curve"/>
      <point x="423" y="695" type="line"/>
      <point x="362" y="644"/>
      <point x="300" y="596"/>
      <point x="237" y="549" type="curve"/>
      <point x="164" y="518"/>
      <point x="92" y="488"/>
      <point x="17" y="461" type="curve"/>
    </contour>
    <contour>
      <point x="183" y="281" type="curve"/>
      <point x="330" y="281" type="line"/>
      <point x="316" y="359"/>
      <point x="306" y="437"/>
      <point x="296" y="515" type="curve"/>
      <point x="306" y="593"/>
      <point x="316" y="671"/>
      <point x="329" y="749" type="curve"/>
      <point x="183" y="749" type="line"/>
      <point x="197" y="671"/>
      <point x="207" y="593"/>
      <point x="217" y="515" type="curve"/>
      <point x="207" y="437"/>
      <point x="197" y="359"/>
    </contour>
  </outline>
</glyph>
<glyph name="plus" format="2">
  <advance width="610"/>
  <unicode hex="002B"/>
  <outline>
    <contour>
      <point x="199" y="44" type="curve"/>
      <point x="411" y="44" type="line"/>
      <point x="404" y="119"/>
      <point x="403" y="190"/>
      <point x="403" y="252" type="curve"/>
      <point x="403" y="366" type="line"/>
      <point x="403" y="428"/>
      <point x="404" y="499"/>
      <point x="411" y="574" type="curve"/>
      <point x="199" y="574" type="line"/>
      <point x="206" y="499"/>
      <point x="207" y="428"/>
      <point x="207" y="366" type="curve"/>
      <point x="207" y="252" type="line"/>
      <point x="207" y="190"/>
      <point x="206" y="119"/>
    </contour>
    <contour>
      <point x="40" y="206" type="line"/>
      <point x="115" y="213"/>
      <point x="186" y="214"/>
      <point x="248" y="214" type="curve"/>
      <point x="362" y="214" type="line"/>
      <point x="424" y="214"/>
      <point x="495" y="213"/>
      <point x="570" y="206" type="curve"/>
      <point x="570" y="412" type="line"/>
      <point x="495" y="405"/>
      <point x="424" y="404"/>
      <point x="362" y="404" type="curve"/>
      <point x="248" y="404" type="line"/>
      <point x="186" y="404"/>
      <point x="115" y="405"/>
      <point x="40" y="412" type="curve"/>
    </contour>
  </outline>
</glyph>
<glyph name="hyphen" format="2">
  <advance width="430"/>
  <unicode hex="002D"/>
  <outline>
    <contour>
      <point x="40" y="201" type="line"/>
      <point x="103" y="208"/>
      <point x="163" y="209"/>
      <point x="215" y="209" type="curve"/>
      <point x="267" y="209"/>
      <point x="327" y="208"/>
      <point x="390" y="201" type="curve"/>
      <point x="390" y="407" type="line"/>
      <point x="327" y="400"/>
      <point x="267" y="399"/>
      <point x="215" y="399" type="curve"/>
      <point x="163" y="399"/>
      <point x="103" y="400"/>
      <point x="40" y="407" type="curve"/>
    </contour>
  </outline>
</glyph>
<glyph name="slash" format="2">
  <advance width="485"/>
  <unicode hex="002F"/>
  <outline>
    <contour>
      <point x="-4" y="0" type="curve"/>
      <point x="240" y="0" type="line"/>
      <point x="252" y="74"/>
      <point x="272" y="137"/>
      <point x="304" y="228" type="curve"/>
      <point x="390" y="474" type="line"/>
      <point x="424" y="571"/>
      <point x="448" y="636"/>
      <point x="489" y="713" type="curve"/>
      <point x="246" y="713" type="line"/>
      <point x="233" y="636"/>
      <point x="212" y="570"/>
      <point x="179" y="476" type="curve"/>
      <point x="92" y="228" type="line"/>
      <point x="60" y="137"/>
      <point x="36" y="74"/>
    </contour>
  </outline>
</glyph>
<glyph name="one" format="2">
  <advance width="490"/>
  <unicode hex="0031"/>
  <outline>
    <contour>
      <point x="67" y="375" type="line"/>
      <point x="142" y="424"/>
      <point x="221" y="460"/>
      <point x="301" y="495" type="curve"/>
      <point x="310" y="696" type="line"/>
      <point x="210" y="652"/>
      <point x="109" y="608"/>
      <point x="6" y="577" type="curve"/>
    </contour>
    <contour>
      <point x="172" y="0" type="curve"/>
      <point x="438" y="0" type="line"/>
      <point x="426" y="69"/>
      <point x="420" y="129"/>
      <point x="420" y="213" type="curve"/>
      <point x="420" y="449" type="line"/>
      <point x="420" y="528"/>
      <point x="424" y="607"/>
      <point x="438" y="690" type="curve"/>
      <point x="310" y="696" type="line"/>
      <point x="180" y="597" type="line"/>
      <point x="188" y="531"/>
      <point x="190" y="466"/>
      <point x="190" y="400" type="curve"/>
      <point x="190" y="213" type="line"/>
      <point x="190" y="129"/>
      <point x="183" y="69"/>
    </contour>
  </outline>
</glyph>
<glyph name="four" format="2">
  <advance width="629"/>
  <unicode hex="0034"/>
  <outline>
    <contour>
      <point x="287" y="0" type="curve"/>
      <point x="553" y="0" type="line"/>
      <point x="536" y="69"/>
      <point x="535" y="129"/>
      <point x="535" y="213" type="curve"/>
      <point x="535" y="449" type="line"/>
      <point x="535" y="528"/>
      <point x="537" y="607"/>
      <point x="553" y="690" type="curve"/>
      <point x="294" y="690" type="line"/>
      <point x="280" y="651"/>
      <point x="252" y="611"/>
      <point x="224" y="572" type="curve"/>
      <point x="147" y="463" type="line"/>
      <point x="108" y="408"/>
      <point x="55" y="335"/>
      <point x="18" y="298" type="curve"/>
      <point x="18" y="130" type="line"/>
      <point x="380" y="130" type="line"/>
      <point x="446" y="130"/>
      <point x="542" y="128"/>
      <point x="602" y="118" type="curve"/>
      <point x="602" y="336" type="line"/>
      <point x="542" y="325"/>
      <point x="446" y="324"/>
      <point x="380" y="324" type="curve"/>
      <point x="362" y="304" type="line"/>
      <point x="196" y="304" type="line"/>
      <point x="212" y="291" type="line"/>
      <point x="231" y="329"/>
      <point x="255" y="367"/>
      <point x="282" y="405" type="curve"/>
      <point x="382" y="548" type="line"/>
      <point x="413" y="592"/>
      <point x="443" y="630"/>
      <point x="475" y="660" type="curve"/>
      <point x="310" y="597" type="line"/>
      <point x="323" y="531"/>
      <point x="325" y="466"/>
      <point x="325" y="400" type="curve"/>
      <point x="325" y="241" type="line"/>
      <point x="305" y="213" type="line"/>
      <point x="305" y="129"/>
      <point x="304" y="69"/>
    </contour>
  </outline>
</glyph>
<glyph name="five" format="2">
  <advance width="593"/>
  <unicode hex="0035"/>
  <outline>
    <contour>
      <point x="279" y="-16" type="curve" smooth="yes"/>
      <point x="478" y="-16"/>
      <point x="565" y="83"/>
      <point x="565" y="224" type="curve" smooth="yes"/>
      <point x="565" y="360"/>
      <point x="480" y="431"/>
      <point x="371" y="431" type="curve" smooth="yes"/>
      <point x="334" y="431"/>
      <point x="304" y="423"/>
      <point x="275" y="409" type="curve"/>
      <point x="259" y="409" type="line"/>
      <point x="260" y="436" type="line"/>
      <point x="261" y="479"/>
      <point x="266" y="523"/>
      <point x="277" y="566" type="curve"/>
      <point x="208" y="496" type="line"/>
      <point x="305" y="496" type="line"/>
      <point x="381" y="496"/>
      <point x="459" y="496"/>
      <point x="536" y="475" type="curve"/>
      <point x="536" y="690" type="line"/>
      <point x="48" y="690" type="line"/>
      <point x="62" y="602"/>
      <point x="64" y="504"/>
      <point x="64" y="400" type="curve"/>
      <point x="64" y="276" type="line"/>
      <point x="161" y="269" type="line"/>
      <point x="186" y="282"/>
      <point x="220" y="287"/>
      <point x="247" y="287" type="curve"/>
      <point x="301" y="284"/>
      <point x="328" y="266"/>
      <point x="328" y="230" type="curve" smooth="yes"/>
      <point x="328" y="193"/>
      <point x="308" y="177"/>
      <point x="255" y="174" type="curve"/>
      <point x="200" y="174"/>
      <point x="111" y="202"/>
      <point x="46" y="234" type="curve"/>
      <point x="29" y="23" type="line"/>
      <point x="81" y="11"/>
      <point x="164" y="-16"/>
    </contour>
  </outline>
</glyph>
<glyph name="seven" format="2">
  <advance width="573"/>
  <unicode hex="0037"/>
  <outline>
    <contour>
      <point x="63" y="0" type="curve"/>
      <point x="345" y="0" type="line"/>
      <point x="357" y="71"/>
      <point x="379" y="139"/>
      <point x="409" y="210" type="curve"/>
      <point x="460" y="331" type="line"/>
      <point x="490" y="402"/>
      <point x="518" y="464"/>
      <point x="548" y="518" type="curve"/>
      <point x="548" y="690" type="line"/>
      <point x="25" y="690" type="line"/>
      <point x="25" y="471" type="line"/>
      <point x="95" y="490"/>
      <point x="164" y="496"/>
      <point x="233" y="496" type="curve"/>
      <point x="350" y="496" type="line"/>
      <point x="290" y="539" type="line"/>
      <point x="283" y="496"/>
      <point x="267" y="452"/>
      <point x="248" y="409" type="curve"/>
      <point x="170" y="231" type="line"/>
      <point x="137" y="155"/>
      <point x="101" y="76"/>
    </contour>
  </outline>
</glyph>
<glyph name="greater" format="2">
  <advance width="590"/>
  <unicode hex="003E"/>
  <outline>
    <contour>
      <point x="40" y="23" type="line"/>
      <point x="115" y="59"/>
      <point x="186" y="85"/>
      <point x="248" y="107" type="curve"/>
      <point x="342" y="140" type="line"/>
      <point x="404" y="162"/>
      <point x="475" y="187"/>
      <point x="550" y="204" type="curve"/>
      <point x="550" y="414" type="line"/>
      <point x="475" y="431"/>
      <point x="404" y="456"/>
      <point x="342" y="478" type="curve"/>
      <point x="248" y="511" type="line"/>
      <point x="186" y="533"/>
      <point x="115" y="559"/>
      <point x="40" y="595" type="curve"/>
      <point x="40" y="376" type="line"/>
      <point x="87" y="370"/>
      <point x="134" y="355"/>
      <point x="181" y="340" type="curve"/>
      <point x="255" y="317" type="line"/>
      <point x="255" y="301" type="line"/>
      <point x="181" y="278" type="line"/>
      <point x="134" y="263"/>
      <point x="87" y="248"/>
      <point x="40" y="242" type="curve"/>
    </contour>
  </outline>
</glyph>
<glyph name="at" format="2">
  <advance width="902"/>
  <unicode hex="0040"/>
  <outline>
    <contour>
      <point x="480" y="-157" type="curve" smooth="yes"/>
      <point x="566" y="-157"/>
      <point x="679" y="-128"/>
      <point x="764" y="-95" type="curve"/>
      <point x="764" y="45" type="line"/>
      <point x="650" y="-12"/>
      <point x="535" y="-32"/>
      <point x="480" y="-37" type="curve"/>
      <point x="229" y="-32"/>
      <point x="115" y="119"/>
      <point x="164" y="338" type="curve" smooth="yes"/>
      <point x="196" y="482"/>
      <point x="291" y="592"/>
      <point x="475" y="597" type="curve"/>
      <point x="666" y="592"/>
      <point x="778" y="483"/>
      <point x="739" y="287" type="curve" smooth="yes"/>
      <point x="728" y="231"/>
      <point x="689" y="197"/>
      <point x="659" y="193" type="curve"/>
      <point x="626" y="197"/>
      <point x="618" y="231"/>
      <point x="628" y="277" type="curve"/>
      <point x="640" y="334" type="line"/>
      <point x="654" y="386"/>
      <point x="671" y="440"/>
      <point x="694" y="490" type="curve"/>
      <point x="524" y="482" type="line"/>
      <point x="507" y="432" type="line"/>
      <point x="494" y="432" type="line"/>
      <point x="472" y="475"/>
      <point x="430" y="495"/>
      <point x="396" y="495" type="curve" smooth="yes"/>
      <point x="304" y="495"/>
      <point x="243" y="409"/>
      <point x="224" y="314" type="curve" smooth="yes"/>
      <point x="198" y="183"/>
      <point x="256" y="67"/>
      <point x="363" y="67" type="curve" smooth="yes"/>
      <point x="392" y="67"/>
      <point x="439" y="91"/>
      <point x="472" y="132" type="curve"/>
      <point x="484" y="132" type="line"/>
      <point x="509" y="89"/>
      <point x="573" y="59"/>
      <point x="653" y="59" type="curve" smooth="yes"/>
      <point x="710" y="59"/>
      <point x="838" y="117"/>
      <point x="867" y="261" type="curve" smooth="yes"/>
      <point x="918" y="515"/>
      <point x="748" y="717"/>
      <point x="477" y="717" type="curve" smooth="yes"/>
      <point x="279" y="717"/>
      <point x="89" y="610"/>
      <point x="37" y="367" type="curve" smooth="yes"/>
      <point x="-24" y="83"/>
      <point x="144" y="-157"/>
    </contour>
    <contour>
      <point x="418" y="218" type="curve"/>
      <point x="397" y="220"/>
      <point x="386" y="252"/>
      <point x="392" y="282" type="curve" smooth="yes"/>
      <point x="399" y="316"/>
      <point x="418" y="338"/>
      <point x="443" y="341" type="curve"/>
      <point x="456" y="339"/>
      <point x="463" y="334"/>
      <point x="467" y="328" type="curve"/>
      <point x="448" y="239" type="line"/>
      <point x="441" y="226"/>
      <point x="431" y="220"/>
    </contour>
  </outline>
</glyph>
<glyph name="B" format="2">
  <advance width="686"/>
  <unicode hex="0042"/>
  <outline>
    <contour>
      <point x="332" y="-9" type="curve"/>
      <point x="590" y="-9"/>
      <point x="664" y="77"/>
      <point x="664" y="204" type="curve" smooth="yes"/>
      <point x="664" y="304"/>
      <point x="614" y="353"/>
      <point x="515" y="376" type="curve"/>
      <point x="515" y="392" type="line"/>
      <point x="592" y="408"/>
      <point x="650" y="462"/>
      <point x="650" y="554" type="curve" smooth="yes"/>
      <point x="650" y="656"/>
      <point x="585" y="720"/>
      <point x="368" y="720" type="curve"/>
      <point x="257" y="720"/>
      <point x="137" y="713"/>
      <point x="32" y="713" type="curve"/>
      <point x="44" y="636"/>
      <point x="51" y="569"/>
      <point x="51" y="474" type="curve"/>
      <point x="51" y="229" type="line"/>
      <point x="51" y="138"/>
      <point x="44" y="74"/>
      <point x="32" y="0" type="curve"/>
      <point x="123" y="0"/>
      <point x="216" y="-9"/>
    </contour>
    <contour>
      <point x="297" y="167" type="line"/>
      <point x="294" y="199"/>
      <point x="292" y="231"/>
      <point x="292" y="282" type="curve"/>
      <point x="292" y="422" type="line"/>
      <point x="292" y="477"/>
      <point x="294" y="514"/>
      <point x="297" y="550" type="curve"/>
      <point x="349" y="550" type="line" smooth="yes"/>
      <point x="384" y="550"/>
      <point x="398" y="525"/>
      <point x="398" y="489" type="curve" smooth="yes"/>
      <point x="398" y="449"/>
      <point x="376" y="432"/>
      <point x="343" y="432" type="curve" smooth="yes"/>
      <point x="233" y="432" type="line"/>
      <point x="233" y="283" type="line"/>
      <point x="357" y="283" type="line" smooth="yes"/>
      <point x="394" y="283"/>
      <point x="410" y="260"/>
      <point x="410" y="225" type="curve" smooth="yes"/>
      <point x="410" y="184"/>
      <point x="388" y="167"/>
      <point x="356" y="167" type="curve" smooth="yes"/>
    </contour>
  </outline>
</glyph>
<glyph name="D" format="2">
  <advance width="735"/>
  <unicode hex="0044"/>
  <anchor x="355" y="0" name="bottom"/>
  <anchor x="368" y="357" name="center"/>
  <anchor x="355" y="713" name="top"/>
  <outline>
    <contour>
      <point x="32" y="0" type="curve"/>
      <point x="114" y="0"/>
      <point x="210" y="-9"/>
      <point x="324" y="-9" type="curve"/>
      <point x="612" y="-9"/>
      <point x="711" y="156"/>
      <point x="711" y="358" type="curve" smooth="yes"/>
      <point x="711" y="587"/>
      <point x="585" y="720"/>
      <point x="371" y="720" type="curve"/>
      <point x="246" y="720"/>
      <point x="115" y="713"/>
      <point x="32" y="713" type="curve"/>
      <point x="44" y="636"/>
      <point x="51" y="569"/>
      <point x="51" y="474" type="curve"/>
      <point x="51" y="229" type="line"/>
      <point x="51" y="138"/>
      <point x="44" y="74"/>
    </contour>
    <contour>
      <point x="302" y="193" type="line"/>
      <point x="299" y="220"/>
      <point x="297" y="250"/>
      <point x="297" y="293" type="curve"/>
      <point x="297" y="412" type="line"/>
      <point x="297" y="459"/>
      <point x="299" y="490"/>
      <point x="302" y="520" type="curve"/>
      <point x="328" y="520" type="line"/>
      <point x="428" y="514"/>
      <point x="455" y="455"/>
      <point x="455" y="361" type="curve" smooth="yes"/>
      <point x="455" y="264"/>
      <point x="431" y="200"/>
      <point x="323" y="193" type="curve"/>
    </contour>
  </outline>
</glyph>
<glyph name="H" format="2">
  <advance width="761"/>
  <unicode hex="0048"/>
  <anchor x="381" y="0" name="bottom"/>
  <anchor x="381" y="357" name="center"/>
  <anchor x="381" y="713" name="top"/>
  <anchor x="43" y="713" name="topleft"/>
  <outline>
    <contour>
      <point x="445" y="0" type="curve"/>
      <point x="729" y="0" type="line"/>
      <point x="716" y="74"/>
      <point x="710" y="138"/>
      <point x="710" y="229" type="curve"/>
      <point x="710" y="474" type="line"/>
      <point x="710" y="569"/>
      <point x="716" y="636"/>
      <point x="729" y="713" type="curve"/>
      <point x="445" y="713" type="line"/>
      <point x="457" y="636"/>
      <point x="464" y="569"/>
      <point x="464" y="474" type="curve"/>
      <point x="464" y="229" type="line"/>
      <point x="464" y="138"/>
      <point x="457" y="74"/>
    </contour>
    <contour>
      <point x="32" y="0" type="curve"/>
      <point x="316" y="0" type="line"/>
      <point x="303" y="74"/>
      <point x="297" y="138"/>
      <point x="297" y="229" type="curve"/>
      <point x="297" y="474" type="line"/>
      <point x="297" y="569"/>
      <point x="303" y="636"/>
      <point x="316" y="713" type="curve"/>
      <point x="32" y="713" type="line"/>
      <point x="44" y="636"/>
      <point x="51" y="569"/>
      <point x="51" y="474" type="curve"/>
      <point x="51" y="229" type="line"/>
      <point x="51" y="138"/>
      <point x="44" y="74"/>
    </contour>
    <contour>
      <point x="236" y="256" type="line"/>
      <point x="526" y="256" type="line"/>
      <point x="526" y="458" type="line"/>
      <point x="236" y="458" type="line"/>
    </contour>
  </outline>
</glyph>
<glyph name="I" format="2">
  <advance width="363"/>
  <unicode hex="0049"/>
  <anchor x="177" y="0" name="bottom"/>
  <anchor x="321" y="0" name="ogonek"/>
  <anchor x="177" y="713" name="top"/>
  <anchor x="31" y="713" name="topleft"/>
  <outline>
    <contour>
      <point x="37" y="0" type="curve"/>
      <point x="326" y="0" type="line"/>
      <point x="313" y="74"/>
      <point x="307" y="138"/>
      <point x="307" y="229" type="curve"/>
      <point x="307" y="474" type="line"/>
      <point x="307" y="569"/>
      <point x="313" y="636"/>
      <point x="326" y="713" type="curve"/>
      <point x="37" y="713" type="line"/>
      <point x="49" y="636"/>
      <point x="56" y="569"/>
      <point x="56" y="474" type="curve"/>
      <point x="56" y="229" type="line"/>
      <point x="56" y="138"/>
      <point x="49" y="74"/>
    </contour>
  </outline>
</glyph>
<glyph name="J" format="2">
  <advance width="357"/>
  <unicode hex="004A"/>
  <anchor x="175" y="0" name="bottom"/>
  <anchor x="175" y="713" name="top"/>
  <outline>
    <contour>
      <point x="-9" y="-152" type="curve"/>
      <point x="225" y="-152" type="line"/>
      <point x="263" y="-105"/>
      <point x="315" y="-33"/>
      <point x="315" y="79" type="curve" smooth="yes"/>
      <point x="315" y="170"/>
      <point x="301" y="267"/>
      <point x="301" y="367" type="curve"/>
      <point x="301" y="474" type="line"/>
      <point x="301" y="569"/>
      <point x="307" y="636"/>
      <point x="320" y="713" type="curve"/>
      <point x="36" y="713" type="line"/>
      <point x="48" y="636"/>
      <point x="55" y="569"/>
      <point x="55" y="474" type="curve"/>
      <point x="55" y="367" type="line"/>
      <point x="55" y="91" type="line"/>
      <point x="55" y="6"/>
      <point x="38" y="-77"/>
    </contour>
  </outline>
</glyph>
<glyph name="K" format="2">
  <advance width="734"/>
  <unicode hex="004B"/>
  <anchor x="376" y="0" name="bottom"/>
  <anchor x="376" y="713" name="top"/>
  <outline>
    <contour>
      <point x="416" y="0" type="curve"/>
      <point x="744" y="0" type="line"/>
      <point x="694" y="66"/>
      <point x="626" y="183"/>
      <point x="579" y="269" type="curve"/>
      <point x="477" y="456" type="line"/>
      <point x="482" y="348" type="line"/>
      <point x="574" y="490" type="line"/>
      <point x="623" y="566"/>
      <point x="671" y="640"/>
      <point x="733" y="713" type="curve"/>
      <point x="418" y="713" type="line"/>
      <point x="406" y="652"/>
      <point x="390" y="609"/>
      <point x="367" y="563" type="curve"/>
      <point x="319" y="467" type="line"/>
      <point x="280" y="467" type="line"/>
      <point x="280" y="278" type="line"/>
      <point x="323" y="278" type="line"/>
      <point x="372" y="156" type="line"/>
      <point x="391" y="109"/>
      <point x="409" y="61"/>
    </contour>
    <contour>
      <point x="32" y="0" type="curve"/>
      <point x="315" y="0" type="line"/>
      <point x="302" y="74"/>
      <point x="296" y="138"/>
      <point x="296" y="229" type="curve"/>
      <point x="296" y="474" type="line"/>
      <point x="296" y="569"/>
      <point x="302" y="636"/>
      <point x="315" y="713" type="curve"/>
      <point x="32" y="713" type="line"/>
      <point x="44" y="636"/>
      <point x="51" y="569"/>
      <point x="51" y="474" type="curve"/>
      <point x="51" y="229" type="line"/>
      <point x="51" y="138"/>
      <point x="44" y="74"/>
    </contour>
  </outline>
</glyph>
<glyph name="L" format="2">
  <advance width="579"/>
  <unicode hex="004C"/>
  <anchor x="298" y="0" name="bottom"/>
  <anchor x="455" y="360" name="center"/>
  <anchor x="257" y="713" name="top"/>
  <anchor x="326" y="502" name="topright"/>
  <outline>
    <contour>
      <point x="32" y="0" type="curve"/>
      <point x="316" y="0" type="line"/>
      <point x="316" y="40" type="line"/>
      <point x="303" y="114"/>
      <point x="297" y="178"/>
      <point x="297" y="269" type="curve"/>
      <point x="297" y="474" type="line"/>
      <point x="297" y="569"/>
      <point x="303" y="636"/>
      <point x="316" y="713" type="curve"/>
      <point x="32" y="713" type="line"/>
      <point x="44" y="636"/>
      <point x="51" y="569"/>
      <point x="51" y="474" type="curve"/>
      <point x="51" y="229" type="line"/>
      <point x="51" y="138"/>
      <point x="44" y="74"/>
    </contour>
    <contour>
      <point x="265" y="0" type="line"/>
      <point x="555" y="0" type="line"/>
      <point x="555" y="237" type="line"/>
      <point x="493" y="220"/>
      <point x="440" y="212"/>
      <point x="349" y="212" type="curve"/>
      <point x="265" y="212" type="line"/>
    </contour>
  </outline>
</glyph>
<glyph name="M" format="2">
  <advance width="971"/>
  <unicode hex="004D"/>
  <anchor x="485" y="0" name="bottom"/>
  <anchor x="485" y="713" name="top"/>
  <outline>
    <contour>
      <point x="15" y="0" type="curve"/>
      <point x="284" y="0" type="line"/>
      <point x="275" y="71"/>
      <point x="274" y="135"/>
      <point x="281" y="191" type="curve"/>
      <point x="296" y="312" type="line"/>
      <point x="312" y="312" type="line"/>
      <point x="354" y="183" type="line"/>
      <point x="374" y="123"/>
      <point x="385" y="58"/>
      <point x="392" y="0" type="curve"/>
      <point x="589" y="0" type="line"/>
      <point x="595" y="57"/>
      <point x="604" y="121"/>
      <point x="619" y="183" type="curve"/>
      <point x="650" y="312" type="line"/>
      <point x="666" y="312" type="line"/>
      <point x="681" y="191" type="line"/>
      <point x="688" y="135"/>
      <point x="687" y="70"/>
      <point x="679" y="0" type="curve"/>
      <point x="956" y="0" type="line"/>
      <point x="935" y="73"/>
      <point x="919" y="142"/>
      <point x="908" y="229" type="curve"/>
      <point x="876" y="472" type="line"/>
      <point x="865" y="558"/>
      <point x="860" y="635"/>
      <point x="860" y="713" type="curve"/>
      <point x="580" y="713" type="line"/>
      <point x="574" y="649"/>
      <point x="564" y="601"/>
      <point x="547" y="550" type="curve"/>
      <point x="497" y="397" type="line"/>
      <point x="482" y="397" type="line"/>
      <point x="427" y="550" type="line"/>
      <point x="409" y="601"/>
      <point x="396" y="650"/>
      <point x="390" y="713" type="curve"/>
      <point x="105" y="713" type="line"/>
      <point x="106" y="634"/>
      <point x="102" y="558"/>
      <point x="91" y="472" type="curve"/>
      <point x="61" y="229" type="line"/>
      <point x="50" y="143"/>
      <point x="34" y="70"/>
    </contour>
  </outline>
</glyph>
<glyph name="P" format="2">
  <advance width="678"/>
  <unicode hex="0050"/>
  <outline>
    <contour>
      <point x="410" y="210" type="curve"/>
      <point x="582" y="210"/>
      <point x="658" y="313"/>
      <point x="658" y="466" type="curve" smooth="yes"/>
      <point x="658" y="660"/>
      <point x="558" y="720"/>
      <point x="373" y="720" type="curve"/>
      <point x="227" y="720"/>
      <point x="112" y="713"/>
      <point x="32" y="713" type="curve"/>
      <point x="277" y="528" type="line"/>
      <point x="356" y="528" type="line" smooth="yes"/>
      <point x="389" y="528"/>
      <point x="409" y="504"/>
      <point x="409" y="457" type="curve" smooth="yes"/>
      <point x="409" y="409"/>
      <point x="392" y="385"/>
      <point x="350" y="385" type="curve" smooth="yes"/>
      <point x="263" y="385" type="line"/>
      <point x="263" y="213" type="line"/>
      <point x="300" y="213"/>
      <point x="363" y="210"/>
    </contour>
    <contour>
      <point x="32" y="0" type="curve"/>
      <point x="311" y="0" type="line"/>
      <point x="298" y="74"/>
      <point x="292" y="138"/>
      <point x="292" y="229" type="curve"/>
      <point x="292" y="434" type="line"/>
      <point x="292" y="529"/>
      <point x="298" y="596"/>
      <point x="311" y="673" type="curve"/>
      <point x="32" y="713" type="line"/>
      <point x="44" y="636"/>
      <point x="51" y="569"/>
      <point x="51" y="474" type="curve"/>
      <point x="51" y="229" type="line"/>
      <point x="51" y="138"/>
      <point x="44" y="74"/>
    </contour>
  </outline>
</glyph>
<glyph name="R" format="2">
  <advance width="721"/>
  <unicode hex="0052"/>
  <anchor x="361" y="0" name="bottom"/>
  <anchor x="336" y="713" name="top"/>
  <outline>
    <contour>
      <point x="418" y="0" type="curve"/>
      <point x="730" y="0" type="line"/>
      <point x="690" y="52"/>
      <point x="634" y="143"/>
      <point x="597" y="211" type="curve"/>
      <point x="517" y="357" type="line"/>
      <point x="416" y="282" type="line"/>
      <point x="581" y="282"/>
      <point x="658" y="362"/>
      <point x="658" y="493" type="curve" smooth="yes"/>
      <point x="658" y="666"/>
      <point x="547" y="720"/>
      <point x="360" y="720" type="curve"/>
      <point x="254" y="720"/>
      <point x="123" y="713"/>
      <point x="32" y="713" type="curve"/>
      <point x="215" y="529" type="line"/>
      <point x="353" y="529" type="line" smooth="yes"/>
      <point x="386" y="529"/>
      <point x="405" y="505"/>
      <point x="405" y="464" type="curve" smooth="yes"/>
      <point x="405" y="409"/>
      <point x="378" y="398"/>
      <point x="348" y="398" type="curve" smooth="yes"/>
      <point x="247" y="398" type="line"/>
      <point x="247" y="251" type="line"/>
      <point x="415" y="251" type="line"/>
      <point x="271" y="341" type="line"/>
      <point x="369" y="141" type="line"/>
      <point x="389" y="100"/>
      <point x="408" y="56"/>
    </contour>
    <contour>
      <point x="32" y="0" type="curve"/>
      <point x="311" y="0" type="line"/>
      <point x="298" y="74"/>
      <point x="292" y="138"/>
      <point x="292" y="229" type="curve"/>
      <point x="292" y="434" type="line"/>
      <point x="292" y="529"/>
      <point x="298" y="596"/>
      <point x="311" y="673" type="curve"/>
      <point x="32" y="713" type="line"/>
      <point x="44" y="636"/>
      <point x="51" y="569"/>
      <point x="51" y="474" type="curve"/>
      <point x="51" y="229" type="line"/>
      <point x="51" y="138"/>
      <point x="44" y="74"/>
    </contour>
  </outline>
</glyph>
<glyph name="U" format="2">
  <advance width="726"/>
  <unicode hex="0055"/>
  <anchor x="364" y="0" name="bottom"/>
  <anchor x="490" y="0" name="ogonek"/>
  <anchor x="364" y="713" name="top"/>
  <anchor x="716" y="713" name="topright"/>
  <outline>
    <contour>
      <point x="365" y="-16" type="curve" smooth="yes"/>
      <point x="586" y="-16"/>
      <point x="688" y="81"/>
      <point x="688" y="283" type="curve" smooth="yes"/>
      <point x="688" y="315"/>
      <point x="683" y="402"/>
      <point x="683" y="474" type="curve"/>
      <point x="683" y="569"/>
      <point x="689" y="636"/>
      <point x="702" y="713" type="curve"/>
      <point x="419" y="713" type="line"/>
      <point x="431" y="636"/>
      <point x="438" y="569"/>
      <point x="438" y="474" type="curve"/>
      <point x="438" y="293" type="line" smooth="yes"/>
      <point x="438" y="217"/>
      <point x="417" y="187"/>
      <point x="364" y="182" type="curve"/>
      <point x="315" y="187"/>
      <point x="288" y="217"/>
      <point x="288" y="293" type="curve" smooth="yes"/>
      <point x="288" y="474" type="line"/>
      <point x="288" y="569"/>
      <point x="294" y="636"/>
      <point x="307" y="713" type="curve"/>
      <point x="24" y="713" type="line"/>
      <point x="36" y="636"/>
      <point x="43" y="569"/>
      <point x="43" y="474" type="curve"/>
      <point x="43" y="402"/>
      <point x="38" y="319"/>
      <point x="38" y="284" type="curve" smooth="yes"/>
      <point x="38" y="87"/>
      <point x="127" y="-16"/>
    </contour>
  </outline>
</glyph>
<glyph name="V" format="2">
  <advance width="740"/>
  <unicode hex="0056"/>
  <anchor x="370" y="0" name="bottom"/>
  <anchor x="370" y="713" name="top"/>
  <outline>
    <contour>
      <point x="188" y="0" type="curve"/>
      <point x="547" y="0" type="line"/>
      <point x="558" y="72"/>
      <point x="572" y="157"/>
      <point x="591" y="226" type="curve"/>
      <point x="651" y="450" type="line"/>
      <point x="672" y="528"/>
      <point x="708" y="634"/>
      <point x="746" y="713" type="curve"/>
      <point x="436" y="713" type="line"/>
      <point x="436" y="635"/>
      <point x="427" y="543"/>
      <point x="414" y="468" type="curve"/>
      <point x="376" y="247" type="line"/>
      <point x="360" y="247" type="line"/>
      <point x="328" y="467" type="line"/>
      <point x="317" y="543"/>
      <point x="307" y="635"/>
      <point x="307" y="713" type="curve"/>
      <point x="-7" y="713" type="line"/>
      <point x="32" y="633"/>
      <point x="67" y="528"/>
      <point x="87" y="450" type="curve"/>
      <point x="145" y="226" type="line"/>
      <point x="162" y="159"/>
      <point x="178" y="72"/>
    </contour>
  </outline>
</glyph>
<glyph name="a" format="2">
  <advance width="533"/>
  <unicode hex="0061"/>
  <anchor x="265" y="0" name="bottom"/>
  <anchor x="495" y="0" name="ogonek"/>
  <anchor x="265" y="502" name="top"/>
  <outline>
    <contour>
      <point x="147" y="-14" type="curve" smooth="yes"/>
      <point x="208" y="-14"/>
      <point x="258" y="32"/>
      <point x="285" y="73" type="curve"/>
      <point x="299" y="73" type="line"/>
      <point x="315" y="0" type="line"/>
      <point x="525" y="0" type="line"/>
      <point x="498" y="69"/>
      <point x="493" y="133"/>
      <point x="493" y="190" type="curve"/>
      <point x="493" y="212" type="line" smooth="yes"/>
      <point x="493" y="244"/>
      <point x="497" y="298"/>
      <point x="497" y="333" type="curve" smooth="yes"/>
      <point x="497" y="464"/>
      <point x="414" y="518"/>
      <point x="281" y="518" type="curve" smooth="yes"/>
      <point x="185" y="518"/>
      <point x="90" y="493"/>
      <point x="39" y="481" type="curve"/>
      <point x="47" y="290" type="line"/>
      <point x="104" y="316"/>
      <point x="194" y="339"/>
      <point x="216" y="339" type="curve" smooth="yes"/>
      <point x="275" y="339"/>
      <point x="298" y="325"/>
      <point x="297" y="308" type="curve"/>
      <point x="169" y="284" type="line" smooth="yes"/>
      <point x="117" y="274"/>
      <point x="16" y="244"/>
      <point x="16" y="126" type="curve" smooth="yes"/>
      <point x="16" y="52"/>
      <point x="57" y="-14"/>
    </contour>
    <contour>
      <point x="251" y="153" type="curve" smooth="yes"/>
      <point x="237" y="153"/>
      <point x="221" y="163"/>
      <point x="221" y="186" type="curve" smooth="yes"/>
      <point x="221" y="210"/>
      <point x="238" y="220"/>
      <point x="253" y="226" type="curve" smooth="yes"/>
      <point x="275" y="235"/>
      <point x="283" y="241"/>
      <point x="291" y="250" type="curve"/>
      <point x="291" y="179" type="line"/>
      <point x="280" y="164"/>
      <point x="265" y="153"/>
    </contour>
  </outline>
</glyph>
<glyph name="e" format="2">
  <advance width="526"/>
  <unicode hex="0065"/>
  <anchor x="274" y="0" name="bottom"/>
  <anchor x="439" y="0" name="ogonek"/>
  <anchor x="274" y="502" name="top"/>
  <outline>
    <contour>
      <point x="313" y="-16" type="curve" smooth="yes"/>
      <point x="398" y="-16"/>
      <point x="455" y="2"/>
      <point x="499" y="12" type="curve"/>
      <point x="492" y="196" type="line"/>
      <point x="444" y="181"/>
      <point x="373" y="163"/>
      <point x="342" y="163" type="curve" smooth="yes"/>
      <point x="259" y="163"/>
      <point x="226" y="191"/>
      <point x="226" y="248" type="curve"/>
      <point x="226" y="277" type="line"/>
      <point x="226" y="342"/>
      <point x="250" y="373"/>
      <point x="275" y="377" type="curve"/>
      <point x="297" y="375"/>
      <point x="315" y="346"/>
      <point x="315" y="301" type="curve" smooth="yes"/>
      <point x="315" y="294"/>
      <point x="315" y="287"/>
      <point x="314" y="279" type="curve"/>
      <point x="501" y="218" type="line"/>
      <point x="504" y="239"/>
      <point x="506" y="259"/>
      <point x="506" y="288" type="curve" smooth="yes"/>
      <point x="506" y="449"/>
      <point x="421" y="518"/>
      <point x="273" y="518" type="curve" smooth="yes"/>
      <point x="96" y="518"/>
      <point x="18" y="408"/>
      <point x="18" y="251" type="curve" smooth="yes"/>
      <point x="18" y="94"/>
      <point x="103" y="-16"/>
    </contour>
    <contour>
      <point x="101" y="218" type="line"/>
      <point x="501" y="218" type="line"/>
      <point x="501" y="298" type="line"/>
      <point x="374" y="310" type="line"/>
      <point x="101" y="300" type="line"/>
    </contour>
  </outline>
</glyph>
<glyph name="k" format="2">
  <advance width="617"/>
  <unicode hex="006B"/>
  <anchor x="304" y="0" name="bottom"/>
  <anchor x="304" y="733" name="top"/>
  <outline>
    <contour>
      <point x="333" y="0" type="curve"/>
      <point x="629" y="0" type="line"/>
      <point x="582" y="63"/>
      <point x="541" y="127"/>
      <point x="505" y="190" type="curve"/>
      <point x="429" y="321" type="line"/>
      <point x="440" y="226" type="line"/>
      <point x="495" y="317" type="line"/>
      <point x="533" y="379"/>
      <point x="572" y="440"/>
      <point x="619" y="502" type="curve"/>
      <point x="340" y="502" type="line"/>
      <point x="336" y="462"/>
      <point x="326" y="423"/>
      <point x="311" y="383" type="curve"/>
      <point x="286" y="318" type="line"/>
      <point x="246" y="318" type="line"/>
      <point x="246" y="176" type="line"/>
      <point x="286" y="176" type="line"/>
      <point x="310" y="108" type="line"/>
      <point x="323" y="72"/>
      <point x="332" y="36"/>
    </contour>
    <contour>
      <point x="22" y="0" type="curve"/>
      <point x="280" y="0" type="line"/>
      <point x="268" y="57"/>
      <point x="262" y="107"/>
      <point x="262" y="166" type="curve"/>
      <point x="262" y="493" type="line"/>
      <point x="262" y="589"/>
      <point x="273" y="675"/>
      <point x="288" y="752" type="curve"/>
      <point x="5" y="732" type="line"/>
      <point x="31" y="649"/>
      <point x="40" y="572"/>
      <point x="40" y="493" type="curve"/>
      <point x="40" y="213" type="line"/>
      <point x="40" y="129"/>
      <point x="33" y="69"/>
    </contour>
  </outline>
</glyph>
<glyph name="n" format="2">
  <advance width="602"/>
  <unicode hex="006E"/>
  <anchor x="299" y="0" name="bottom"/>
  <anchor x="299" y="502" name="top"/>
  <outline>
    <contour>
      <point x="26" y="0" type="curve"/>
      <point x="284" y="0" type="line"/>
      <point x="272" y="69"/>
      <point x="266" y="129"/>
      <point x="266" y="200" type="curve"/>
      <point x="266" y="291" type="line"/>
      <point x="277" y="303"/>
      <point x="300" y="318"/>
      <point x="309" y="318" type="curve" smooth="yes"/>
      <point x="333" y="318"/>
      <point x="341" y="293"/>
      <point x="341" y="238" type="curve"/>
      <point x="341" y="200" type="line"/>
      <point x="341" y="129"/>
      <point x="335" y="69"/>
      <point x="326" y="0" type="curve"/>
      <point x="582" y="0" type="line"/>
      <point x="567" y="69"/>
      <point x="563" y="129"/>
      <point x="563" y="213" type="curve"/>
      <point x="563" y="252"/>
      <point x="568" y="297"/>
      <point x="568" y="341" type="curve" smooth="yes"/>
      <point x="568" y="461"/>
      <point x="507" y="518"/>
      <point x="411" y="518" type="curve" smooth="yes"/>
      <point x="357" y="518"/>
      <point x="298" y="485"/>
      <point x="255" y="431" type="curve"/>
      <point x="238" y="431" type="line"/>
      <point x="228" y="512" type="line"/>
      <point x="10" y="502" type="line"/>
      <point x="36" y="419"/>
      <point x="44" y="342"/>
      <point x="44" y="263" type="curve"/>
      <point x="44" y="213" type="line"/>
      <point x="44" y="129"/>
      <point x="37" y="69"/>
    </contour>
  </outline>
</glyph>
<glyph name="p" format="2">
  <advance width="602"/>
  <unicode hex="0070"/>
  <outline>
    <contour>
      <point x="26" y="-198" type="curve"/>
      <point x="289" y="-192" type="line"/>
      <point x="273" y="-123"/>
      <point x="266" y="-63"/>
      <point x="266" y="8" type="curve"/>
      <point x="266" y="45" type="line"/>
      <point x="279" y="45" type="line"/>
      <point x="314" y="2"/>
      <point x="356" y="-16"/>
      <point x="394" y="-16" type="curve" smooth="yes"/>
      <point x="525" y="-16"/>
      <point x="582" y="112"/>
      <point x="582" y="251" type="curve" smooth="yes"/>
      <point x="582" y="400"/>
      <point x="521" y="518"/>
      <point x="393" y="518" type="curve" smooth="yes"/>
      <point x="344" y="518"/>
      <point x="298" y="492"/>
      <point x="261" y="440" type="curve"/>
      <point x="245" y="440" type="line"/>
      <point x="237" y="512" type="line"/>
      <point x="10" y="502" type="line"/>
      <point x="36" y="419"/>
      <point x="44" y="342"/>
      <point x="44" y="263" type="curve"/>
      <point x="44" y="21" type="line"/>
      <point x="44" y="-63"/>
      <point x="37" y="-129"/>
    </contour>
    <contour>
      <point x="303" y="169" type="curve"/>
      <point x="284" y="172"/>
      <point x="273" y="182"/>
      <point x="266" y="197" type="curve"/>
      <point x="266" y="312" type="line"/>
      <point x="275" y="322"/>
      <point x="288" y="329"/>
      <point x="303" y="330" type="curve"/>
      <point x="337" y="327"/>
      <point x="355" y="292"/>
      <point x="355" y="249" type="curve" smooth="yes"/>
      <point x="355" y="209"/>
      <point x="336" y="172"/>
    </contour>
  </outline>
</glyph>
<glyph name="q" format="2">
  <advance width="590"/>
  <unicode hex="0071"/>
  <outline>
    <contour>
      <point x="318" y="-198" type="curve"/>
      <point x="576" y="-192" type="line"/>
      <point x="564" y="-123"/>
      <point x="558" y="-63"/>
      <point x="558" y="21" type="curve"/>
      <point x="558" y="263" type="line"/>
      <point x="558" y="345"/>
      <point x="566" y="426"/>
      <point x="582" y="512" type="curve"/>
      <point x="365" y="502" type="line"/>
      <point x="357" y="440" type="line"/>
      <point x="341" y="440" type="line"/>
      <point x="304" y="492"/>
      <point x="258" y="518"/>
      <point x="209" y="518" type="curve" smooth="yes"/>
      <point x="81" y="518"/>
      <point x="20" y="400"/>
      <point x="20" y="251" type="curve" smooth="yes"/>
      <point x="20" y="112"/>
      <point x="77" y="-16"/>
      <point x="208" y="-16" type="curve" smooth="yes"/>
      <point x="246" y="-16"/>
      <point x="288" y="2"/>
      <point x="323" y="45" type="curve"/>
      <point x="336" y="45" type="line"/>
      <point x="336" y="8" type="line"/>
      <point x="336" y="-63"/>
      <point x="329" y="-129"/>
    </contour>
    <contour>
      <point x="299" y="169" type="curve"/>
      <point x="266" y="172"/>
      <point x="247" y="209"/>
      <point x="247" y="249" type="curve" smooth="yes"/>
      <point x="247" y="292"/>
      <point x="265" y="327"/>
      <point x="299" y="330" type="curve"/>
      <point x="314" y="329"/>
      <point x="327" y="322"/>
      <point x="336" y="312" type="curve"/>
      <point x="336" y="197" type="line"/>
      <point x="329" y="182"/>
      <point x="318" y="172"/>
    </contour>
  </outline>
</glyph>
<glyph name="s" format="2">
  <advance width="478"/>
  <unicode hex="0073"/>
  <anchor x="243" y="0" name="bottom"/>
  <anchor x="243" y="502" name="top"/>
  <outline>
    <contour>
      <point x="226" y="-16" type="curve" smooth="yes"/>
      <point x="395" y="-16"/>
      <point x="465" y="51"/>
      <point x="465" y="152" type="curve" smooth="yes"/>
      <point x="465" y="224"/>
      <point x="429" y="260"/>
      <point x="310" y="290" type="curve" smooth="yes"/>
      <point x="264" y="301"/>
      <point x="254" y="312"/>
      <point x="254" y="329" type="curve" smooth="yes"/>
      <point x="254" y="342"/>
      <point x="265" y="348"/>
      <point x="277" y="350" type="curve"/>
      <point x="302" y="350"/>
      <point x="360" y="335"/>
      <point x="423" y="306" type="curve"/>
      <point x="436" y="492" type="line"/>
      <point x="393" y="499"/>
      <point x="298" y="517"/>
      <point x="229" y="517" type="curve" smooth="yes"/>
      <point x="98" y="517"/>
      <point x="26" y="454"/>
      <point x="26" y="350" type="curve" smooth="yes"/>
      <point x="26" y="275"/>
      <point x="61" y="228"/>
      <point x="162" y="203" type="curve" smooth="yes"/>
      <point x="221" y="189"/>
      <point x="240" y="184"/>
      <point x="240" y="165" type="curve" smooth="yes"/>
      <point x="240" y="149"/>
      <point x="226" y="143"/>
      <point x="210" y="141" type="curve"/>
      <point x="166" y="141"/>
      <point x="93" y="164"/>
      <point x="40" y="191" type="curve"/>
      <point x="28" y="11" type="line"/>
      <point x="70" y="3"/>
      <point x="134" y="-16"/>
    </contour>
  </outline>
</glyph>
<glyph name="u" format="2">
  <advance width="595"/>
  <unicode hex="0075"/>
  <anchor x="294" y="0" name="bottom"/>
  <anchor x="563" y="0" name="ogonek"/>
  <anchor x="294" y="502" name="top"/>
  <anchor x="575" y="502" name="topright"/>
  <outline>
    <contour>
      <point x="184" y="-16" type="curve" smooth="yes"/>
      <point x="233" y="-16"/>
      <point x="292" y="17"/>
      <point x="335" y="71" type="curve"/>
      <point x="352" y="71" type="line"/>
      <point x="362" y="0" type="line"/>
      <point x="569" y="0" type="line"/>
      <point x="557" y="69"/>
      <point x="551" y="129"/>
      <point x="551" y="213" type="curve"/>
      <point x="551" y="273" type="line"/>
      <point x="551" y="373"/>
      <point x="559" y="433"/>
      <point x="571" y="502" type="curve"/>
      <point x="313" y="502" type="line"/>
      <point x="322" y="433"/>
      <point x="329" y="373"/>
      <point x="329" y="303" type="curve"/>
      <point x="329" y="206" type="line"/>
      <point x="318" y="194"/>
      <point x="295" y="179"/>
      <point x="286" y="179" type="curve" smooth="yes"/>
      <point x="262" y="179"/>
      <point x="254" y="204"/>
      <point x="254" y="259" type="curve"/>
      <point x="254" y="303" type="line"/>
      <point x="254" y="373"/>
      <point x="260" y="439"/>
      <point x="270" y="508" type="curve"/>
      <point x="12" y="502" type="line"/>
      <point x="23" y="433"/>
      <point x="32" y="373"/>
      <point x="32" y="273" type="curve"/>
      <point x="32" y="234"/>
      <point x="29" y="205"/>
      <point x="29" y="161" type="curve" smooth="yes"/>
      <point x="29" y="41"/>
      <point x="88" y="-16"/>
    </contour>
  </outline>
</glyph>
<glyph name="y" format="2">
  <advance width="583"/>
  <unicode hex="0079"/>
  <anchor x="494" y="0" name="bottom"/>
  <anchor x="294" y="502" name="top"/>
  <outline>
    <contour>
      <point x="72" y="-198" type="curve"/>
      <point x="334" y="-192" type="line"/>
      <point x="350" y="-120"/>
      <point x="381" y="-35"/>
      <point x="429" y="92" type="curve"/>
      <point x="482" y="233" type="line"/>
      <point x="529" y="359"/>
      <point x="553" y="421"/>
      <point x="588" y="502" type="curve"/>
      <point x="334" y="502" type="line"/>
      <point x="334" y="446"/>
      <point x="327" y="393"/>
      <point x="318" y="337" type="curve"/>
      <point x="301" y="230" type="line"/>
      <point x="285" y="230" type="line"/>
      <point x="270" y="338" type="line"/>
      <point x="262" y="396"/>
      <point x="255" y="450"/>
      <point x="255" y="508" type="curve"/>
      <point x="-5" y="502" type="line"/>
      <point x="28" y="431"/>
      <point x="55" y="355"/>
      <point x="80" y="282" type="curve"/>
      <point x="110" y="192" type="line"/>
      <point x="133" y="125"/>
      <point x="157" y="54"/>
      <point x="170" y="-15" type="curve"/>
      <point x="180" y="21" type="line"/>
      <point x="153" y="-50"/>
      <point x="119" y="-127"/>
    </contour>
  </outline>
</glyph>
<glyph name="currency" format="2">
  <advance width="684"/>
  <unicode hex="00A4"/>
  <outline>
    <contour>
      <point x="341" y="77" type="curve" smooth="yes"/>
      <point x="496" y="77"/>
      <point x="603" y="159"/>
      <point x="603" y="322" type="curve" smooth="yes"/>
      <point x="603" y="463"/>
      <point x="496" y="563"/>
      <point x="343" y="563" type="curve" smooth="yes"/>
      <point x="188" y="563"/>
      <point x="81" y="468"/>
      <point x="81" y="322" type="curve" smooth="yes"/>
      <point x="81" y="160"/>
      <point x="188" y="77"/>
    </contour>
    <contour>
      <point x="159" y="-13" type="line"/>
      <point x="207" y="45"/>
      <point x="256" y="96"/>
      <point x="300" y="140" type="curve"/>
      <point x="162" y="278" type="line"/>
      <point x="118" y="234"/>
      <point x="67" y="185"/>
      <point x="9" y="137" type="curve"/>
    </contour>
    <contour>
      <point x="342" y="253" type="curve"/>
      <point x="303" y="259"/>
      <point x="275" y="281"/>
      <point x="275" y="321" type="curve" smooth="yes"/>
      <point x="275" y="355"/>
      <point x="303" y="382"/>
      <point x="342" y="388" type="curve"/>
      <point x="382" y="382"/>
      <point x="409" y="353"/>
      <point x="409" y="321" type="curve" smooth="yes"/>
      <point x="409" y="281"/>
      <point x="381" y="259"/>
    </contour>
    <contour>
      <point x="164" y="364" type="curve"/>
      <point x="298" y="498" type="line"/>
      <point x="254" y="542"/>
      <point x="205" y="593"/>
      <point x="157" y="651" type="curve"/>
      <point x="11" y="505" type="line"/>
      <point x="69" y="457"/>
      <point x="120" y="408"/>
    </contour>
    <contour>
      <point x="527" y="-11" type="curve"/>
      <point x="673" y="135" type="line"/>
      <point x="615" y="183"/>
      <point x="564" y="232"/>
      <point x="520" y="276" type="curve"/>
      <point x="386" y="142" type="line"/>
      <point x="430" y="98"/>
      <point x="479" y="47"/>
    </contour>
    <contour>
      <point x="522" y="362" type="line"/>
      <point x="566" y="406"/>
      <point x="617" y="455"/>
      <point x="675" y="503" type="curve"/>
      <point x="525" y="653" type="line"/>
      <point x="477" y="595"/>
      <point x="428" y="544"/>
      <point x="384" y="500" type="curve"/>
    </contour>
  </outline>
</glyph>
<glyph name="yen" format="2">
  <advance width="683"/>
  <unicode hex="00A5"/>
  <outline>
    <contour>
      <point x="231" y="220" type="line"/>
      <point x="456" y="220" type="line"/>
      <point x="585" y="506" type="line"/>
      <point x="612" y="566"/>
      <point x="642" y="630"/>
      <point x="688" y="690" type="curve"/>
      <point x="397" y="690" type="line"/>
      <point x="395" y="626"/>
      <point x="388" y="596"/>
      <point x="375" y="545" type="curve"/>
      <point x="353" y="460" type="line"/>
      <point x="335" y="460" type="line"/>
      <point x="315" y="544" type="line"/>
      <point x="303" y="594"/>
      <point x="297" y="624"/>
      <point x="296" y="690" type="curve"/>
      <point x="-7" y="690" type="line"/>
      <point x="53" y="599"/>
      <point x="75" y="559"/>
      <point x="100" y="505" type="curve"/>
    </contour>
    <contour>
      <point x="209" y="0" type="curve"/>
      <point x="479" y="0" type="line"/>
      <point x="462" y="71"/>
      <point x="461" y="133"/>
      <point x="461" y="220" type="curve"/>
      <point x="461" y="411" type="line"/>
      <point x="227" y="411" type="line"/>
      <point x="227" y="220" type="line"/>
      <point x="227" y="133"/>
      <point x="226" y="71"/>
    </contour>
    <contour>
      <point x="63" y="89" type="line"/>
      <point x="138" y="96"/>
      <point x="209" y="97"/>
      <point x="271" y="97" type="curve"/>
      <point x="415" y="97" type="line"/>
      <point x="477" y="97"/>
      <point x="548" y="96"/>
      <point x="623" y="89" type="curve"/>
      <point x="623" y="230" type="line"/>
      <point x="548" y="228"/>
      <point x="477" y="227"/>
      <point x="415" y="227" type="curve"/>
      <point x="271" y="227" type="line"/>
      <point x="209" y="227"/>
      <point x="138" y="228"/>
      <point x="63" y="230" type="curve"/>
    </contour>
    <contour>
      <point x="63" y="273" type="line"/>
      <point x="138" y="275"/>
      <point x="209" y="276"/>
      <point x="271" y="276" type="curve"/>
      <point x="415" y="276" type="line"/>
      <point x="477" y="276"/>
      <point x="548" y="275"/>
      <point x="623" y="273" type="curve"/>
      <point x="623" y="414" type="line"/>
      <point x="548" y="407"/>
      <point x="477" y="406"/>
      <point x="415" y="406" type="curve"/>
      <point x="271" y="406" type="line"/>
      <point x="209" y="406"/>
      <point x="138" y="407"/>
      <point x="63" y="414" type="curve"/>
    </contour>
  </outline>
</glyph>
<glyph name="brokenbar" format="2">
  <advance width="302"/>
  <unicode hex="00A6"/>
  <outline>
    <contour>
      <point x="56" y="356" type="line"/>
      <point x="246" y="356" type="line"/>
      <point x="246" y="447" type="line"/>
      <point x="246" y="555"/>
      <point x="247" y="658"/>
      <point x="258" y="776" type="curve"/>
      <point x="44" y="776" type="line"/>
      <point x="55" y="658"/>
      <point x="56" y="555"/>
      <point x="56" y="447" type="curve"/>
    </contour>
    <contour>
      <point x="44" y="-164" type="curve"/>
      <point x="258" y="-164" type="line"/>
      <point x="247" y="-46"/>
      <point x="246" y="57"/>
      <point x="246" y="165" type="curve"/>
      <point x="246" y="256" type="line"/>
      <point x="56" y="256" type="line"/>
      <point x="56" y="165" type="line"/>
      <point x="56" y="57"/>
      <point x="55" y="-46"/>
    </contour>
  </outline>
</glyph>
<glyph name="ordfeminine" format="2">
  <advance width="414"/>
  <unicode hex="00AA"/>
  <outline>
    <contour>
      <point x="126" y="326" type="curve" smooth="yes"/>
      <point x="171" y="326"/>
      <point x="210" y="358"/>
      <point x="233" y="392" type="curve"/>
      <point x="243" y="392" type="line"/>
      <point x="255" y="336" type="line"/>
      <point x="408" y="336" type="line"/>
      <point x="388" y="388"/>
      <point x="384" y="438"/>
      <point x="384" y="478" type="curve"/>
      <point x="384" y="497" type="line" smooth="yes"/>
      <point x="384" y="522"/>
      <point x="387" y="563"/>
      <point x="387" y="589" type="curve" smooth="yes"/>
      <point x="387" y="688"/>
      <point x="325" y="729"/>
      <point x="225" y="729" type="curve" smooth="yes"/>
      <point x="152" y="729"/>
      <point x="82" y="710"/>
      <point x="43" y="701" type="curve"/>
      <point x="49" y="562" type="line"/>
      <point x="94" y="582"/>
      <point x="162" y="599"/>
      <point x="178" y="599" type="curve" smooth="yes"/>
      <point x="227" y="599"/>
      <point x="242" y="586"/>
      <point x="241" y="570" type="curve"/>
      <point x="142" y="551" type="line" smooth="yes"/>
      <point x="109" y="545"/>
      <point x="26" y="525"/>
      <point x="26" y="432" type="curve" smooth="yes"/>
      <point x="26" y="375"/>
      <point x="58" y="326"/>
    </contour>
    <contour>
      <point x="201" y="447" type="curve" smooth="yes"/>
      <point x="189" y="447"/>
      <point x="175" y="456"/>
      <point x="175" y="475" type="curve" smooth="yes"/>
      <point x="175" y="495"/>
      <point x="190" y="504"/>
      <point x="204" y="509" type="curve" smooth="yes"/>
      <point x="224" y="516"/>
      <point x="229" y="519"/>
      <point x="237" y="527" type="curve"/>
      <point x="237" y="470" type="line"/>
      <point x="227" y="456"/>
      <point x="213" y="447"/>
    </contour>
  </outline>
</glyph>
<glyph name="eth" format="2">
  <advance width="598"/>
  <unicode hex="00F0"/>
  <outline>
    <contour>
      <point x="302" y="-16" type="curve" smooth="yes"/>
      <point x="507" y="-16"/>
      <point x="580" y="114"/>
      <point x="580" y="303" type="curve" smooth="yes"/>
      <point x="580" y="447"/>
      <point x="520" y="565"/>
      <point x="423" y="656" type="curve"/>
      <point x="380" y="696"/>
      <point x="335" y="735"/>
      <point x="296" y="767" type="curve"/>
      <point x="89" y="694" type="line"/>
      <point x="164" y="654"/>
      <point x="214" y="616"/>
      <point x="254" y="571" type="curve"/>
      <point x="319" y="497"/>
      <point x="354" y="417"/>
      <point x="354" y="329" type="curve" smooth="yes"/>
      <point x="354" y="212"/>
      <point x="337" y="165"/>
      <point x="301" y="161" type="curve"/>
      <point x="265" y="165"/>
      <point x="244" y="196"/>
      <point x="244" y="229" type="curve" smooth="yes"/>
      <point x="244" y="261"/>
      <point x="264" y="290"/>
      <point x="300" y="294" type="curve"/>
      <point x="314" y="292"/>
      <point x="342" y="287"/>
      <point x="368" y="260" type="curve"/>
      <point x="414" y="317"/>
      <point x="401" y="376"/>
      <point x="347" y="433" type="curve"/>
      <point x="326" y="414" type="line"/>
      <point x="302" y="432"/>
      <point x="246" y="447"/>
      <point x="202" y="447" type="curve" smooth="yes"/>
      <point x="98" y="447"/>
      <point x="18" y="376"/>
      <point x="18" y="239" type="curve" smooth="yes"/>
      <point x="18" y="105"/>
      <point x="100" y="-16"/>
    </contour>
    <contour>
      <point x="145" y="461" type="line"/>
      <point x="207" y="494"/>
      <point x="267" y="517"/>
      <point x="322" y="537" type="curve"/>
      <point x="371" y="555" type="line"/>
      <point x="426" y="575"/>
      <point x="491" y="596"/>
      <point x="558" y="612" type="curve"/>
      <point x="507" y="754" type="line"/>
      <point x="446" y="722"/>
      <point x="385" y="699"/>
      <point x="330" y="679" type="curve"/>
      <point x="278" y="660" type="line"/>
      <point x="223" y="640"/>
      <point x="162" y="619"/>
      <point x="93" y="604" type="curve"/>
    </contour>
  </outline>
</glyph>
<glyph name="divide" format="2">
  <advance width="590"/>
  <unicode hex="00F7"/>
  <outline>
    <contour>
      <point x="40" y="206" type="line"/>
      <point x="115" y="213"/>
      <point x="186" y="214"/>
      <point x="248" y="214" type="curve"/>
      <point x="342" y="214" type="line"/>
      <point x="404" y="214"/>
      <point x="475" y="213"/>
      <point x="550" y="206" type="curve"/>
      <point x="550" y="412" type="line"/>
      <point x="475" y="405"/>
      <point x="404" y="404"/>
      <point x="342" y="404" type="curve"/>
      <point x="248" y="404" type="line"/>
      <point x="186" y="404"/>
      <point x="115" y="405"/>
      <point x="40" y="412" type="curve"/>
    </contour>
    <contour>
      <point x="293.48" y="-6.12" type="curve" smooth="yes"/>
      <point x="358.16" y="-6.12"/>
      <point x="396.8" y="30"/>
      <point x="396.8" y="102.24" type="curve" smooth="yes"/>
      <point x="396.8" y="157.68"/>
      <point x="358.16" y="191.28"/>
      <point x="294.32" y="191.28" type="curve" smooth="yes"/>
      <point x="229.64" y="191.28"/>
      <point x="191" y="157.68"/>
      <point x="191" y="102.24" type="curve" smooth="yes"/>
      <point x="191" y="30"/>
      <point x="229.64" y="-6.12"/>
    </contour>
    <contour>
      <point x="293.48" y="426.88" type="curve" smooth="yes"/>
      <point x="358.16" y="426.88"/>
      <point x="396.8" y="463"/>
      <point x="396.8" y="535.24" type="curve" smooth="yes"/>
      <point x="396.8" y="590.68"/>
      <point x="358.16" y="624.28"/>
      <point x="294.32" y="624.28" type="curve" smooth="yes"/>
      <point x="229.64" y="624.28"/>
      <point x="191" y="590.68"/>
      <point x="191" y="535.24" type="curve" smooth="yes"/>
      <point x="191" y="463"/>
      <point x="229.64" y="426.88"/>
    </contour>
  </outline>
</glyph>
<glyph name="thorn" format="2">
  <advance width="598"/>
  <unicode hex="00FE"/>
  <outline>
    <contour>
      <point x="22" y="-198" type="curve"/>
      <point x="285" y="-192" type="line"/>
      <point x="269" y="-123"/>
      <point x="262" y="-63"/>
      <point x="262" y="8" type="curve"/>
      <point x="262" y="45" type="line"/>
      <point x="275" y="45" type="line"/>
      <point x="310" y="2"/>
      <point x="352" y="-16"/>
      <point x="390" y="-16" type="curve" smooth="yes"/>
      <point x="521" y="-16"/>
      <point x="578" y="112"/>
      <point x="578" y="251" type="curve" smooth="yes"/>
      <point x="578" y="400"/>
      <point x="517" y="518"/>
      <point x="396" y="518" type="curve" smooth="yes"/>
      <point x="351" y="518"/>
      <point x="309" y="491"/>
      <point x="279" y="447" type="curve"/>
      <point x="262" y="447" type="line"/>
      <point x="262" y="493" type="line"/>
      <point x="262" y="589"/>
      <point x="273" y="675"/>
      <point x="288" y="752" type="curve"/>
      <point x="5" y="732" type="line"/>
      <point x="31" y="649"/>
      <point x="40" y="572"/>
      <point x="40" y="493" type="curve"/>
      <point x="40" y="21" type="line"/>
      <point x="40" y="-63"/>
      <point x="33" y="-129"/>
    </contour>
    <contour>
      <point x="299" y="169" type="curve"/>
      <point x="280" y="172"/>
      <point x="269" y="182"/>
      <point x="262" y="197" type="curve"/>
      <point x="262" y="312" type="line"/>
      <point x="271" y="322"/>
      <point x="284" y="329"/>
      <point x="299" y="330" type="curve"/>
      <point x="333" y="327"/>
      <point x="351" y="292"/>
      <point x="351" y="249" type="curve" smooth="yes"/>
      <point x="351" y="209"/>
      <point x="332" y="172"/>
    </contour>
  </outline>
</glyph>
<glyph name="dcroat" format="2">
  <advance width="594"/>
  <unicode hex="0111"/>
  <outline>
    <contour>
      <point x="213" y="540" type="line"/>
      <point x="276" y="548"/>
      <point x="336" y="550"/>
      <point x="389" y="550" type="curve"/>
      <point x="437" y="550" type="line"/>
      <point x="490" y="550"/>
      <point x="550" y="548"/>
      <point x="613" y="540" type="curve"/>
      <point x="613" y="691" type="line"/>
      <point x="550" y="691"/>
      <point x="490" y="691"/>
      <point x="437" y="691" type="curve"/>
      <point x="389" y="691" type="line"/>
      <point x="336" y="691"/>
      <point x="276" y="694"/>
      <point x="213" y="701" type="curve"/>
    </contour>
    <contour>
      <point x="208" y="-16" type="curve" smooth="yes"/>
      <point x="254" y="-16"/>
      <point x="302" y="11"/>
      <point x="344" y="63" type="curve"/>
      <point x="357" y="63" type="line"/>
      <point x="372" y="0" type="line"/>
      <point x="576" y="0" type="line"/>
      <point x="564" y="69"/>
      <point x="558" y="129"/>
      <point x="558" y="213" type="curve"/>
      <point x="558" y="493" type="line"/>
      <point x="558" y="589"/>
      <point x="558" y="673"/>
      <point x="558" y="750" type="curve"/>
      <point x="301" y="732" type="line"/>
      <point x="327" y="649"/>
      <point x="336" y="572"/>
      <point x="336" y="493" type="curve"/>
      <point x="336" y="456" type="line"/>
      <point x="320" y="456" type="line"/>
      <point x="289" y="497"/>
      <point x="250" y="518"/>
      <point x="209" y="518" type="curve" smooth="yes"/>
      <point x="81" y="518"/>
      <point x="20" y="400"/>
      <point x="20" y="251" type="curve" smooth="yes"/>
      <point x="20" y="112"/>
      <point x="77" y="-16"/>
    </contour>
    <contour>
      <point x="299" y="169" type="curve"/>
      <point x="266" y="172"/>
      <point x="247" y="209"/>
      <point x="247" y="249" type="curve" smooth="yes"/>
      <point x="247" y="292"/>
      <point x="265" y="327"/>
      <point x="299" y="330" type="curve"/>
      <point x="314" y="329"/>
      <point x="327" y="322"/>
      <point x="336" y="312" type="curve"/>
      <point x="336" y="197" type="line"/>
      <point x="329" y="182"/>
      <point x="318" y="172"/>
    </contour>
  </outline>
</glyph>
<glyph name="idotless" format="2">
  <advance width="304"/>
  <unicode hex="0131"/>
  <anchor x="152" y="0" name="bottom"/>
  <anchor x="275" y="0" name="ogonek"/>
  <anchor x="152" y="502" name="top"/>
  <outline>
    <contour>
      <point x="23" y="0" type="curve"/>
      <point x="281" y="0" type="line"/>
      <point x="269" y="69"/>
      <point x="263" y="129"/>
      <point x="263" y="213" type="curve"/>
      <point x="263" y="263" type="line"/>
      <point x="263" y="373"/>
      <point x="271" y="433"/>
      <point x="283" y="502" type="curve"/>
      <point x="21" y="502" type="line"/>
      <point x="32" y="433"/>
      <point x="41" y="373"/>
      <point x="41" y="263" type="curve"/>
      <point x="41" y="213" type="line"/>
      <point x="41" y="129"/>
      <point x="34" y="69"/>
    </contour>
  </outline>
</glyph>
<glyph name="kgreenlandic" format="2">
  <advance width="614"/>
  <unicode hex="0138"/>
  <outline>
    <contour>
      <point x="330" y="0" type="curve"/>
      <point x="626" y="0" type="line"/>
      <point x="579" y="63"/>
      <point x="538" y="127"/>
      <point x="502" y="190" type="curve"/>
      <point x="426" y="321" type="line"/>
      <point x="437" y="226" type="line"/>
      <point x="492" y="317" type="line"/>
      <point x="530" y="379"/>
      <point x="569" y="440"/>
      <point x="616" y="502" type="curve"/>
      <point x="337" y="502" type="line"/>
      <point x="333" y="462"/>
      <point x="323" y="423"/>
      <point x="308" y="383" type="curve"/>
      <point x="283" y="318" type="line"/>
      <point x="243" y="318" type="line"/>
      <point x="243" y="176" type="line"/>
      <point x="283" y="176" type="line"/>
      <point x="307" y="108" type="line"/>
      <point x="320" y="72"/>
      <point x="329" y="36"/>
    </contour>
    <contour>
      <point x="19" y="0" type="curve"/>
      <point x="277" y="0" type="line"/>
      <point x="265" y="57"/>
      <point x="259" y="107"/>
      <point x="259" y="166" type="curve"/>
      <point x="259" y="303" type="line"/>
      <point x="259" y="373"/>
      <point x="265" y="439"/>
      <point x="275" y="508" type="curve"/>
      <point x="17" y="502" type="line"/>
      <point x="28" y="433"/>
      <point x="37" y="373"/>
      <point x="37" y="273" type="curve"/>
      <point x="37" y="213" type="line"/>
      <point x="37" y="129"/>
      <point x="30" y="69"/>
    </contour>
  </outline>
</glyph>
<glyph name="Lslash" format="2">
  <advance width="609"/>
  <unicode hex="0141"/>
  <outline>
    <contour>
      <point x="62" y="0" type="curve"/>
      <point x="346" y="0" type="line"/>
      <point x="346" y="40" type="line"/>
      <point x="333" y="114"/>
      <point x="327" y="178"/>
      <point x="327" y="269" type="curve"/>
      <point x="327" y="474" type="line"/>
      <point x="327" y="569"/>
      <point x="333" y="636"/>
      <point x="346" y="713" type="curve"/>
      <point x="62" y="713" type="line"/>
      <point x="74" y="636"/>
      <point x="81" y="569"/>
      <point x="81" y="474" type="curve"/>
      <point x="81" y="229" type="line"/>
      <point x="81" y="138"/>
      <point x="74" y="74"/>
    </contour>
    <contour>
      <point x="32" y="215" type="line"/>
      <point x="102" y="244"/>
      <point x="170" y="266"/>
      <point x="232" y="284" type="curve"/>
      <point x="286" y="300" type="line"/>
      <point x="348" y="318"/>
      <point x="418" y="337"/>
      <point x="492" y="351" type="curve"/>
      <point x="441" y="524" type="line"/>
      <point x="371" y="496"/>
      <point x="302" y="472"/>
      <point x="241" y="454" type="curve"/>
      <point x="186" y="438" type="line"/>
      <point x="125" y="420"/>
      <point x="55" y="403"/>
      <point x="-19" y="388" type="curve"/>
    </contour>
    <contour>
      <point x="295" y="0" type="line"/>
      <point x="585" y="0" type="line"/>
      <point x="585" y="237" type="line"/>
      <point x="523" y="220"/>
      <point x="470" y="212"/>
      <point x="379" y="212" type="curve"/>
      <point x="295" y="212" type="line"/>
    </contour>
  </outline>
</glyph>
<glyph name="lslash" format="2">
  <advance width="412"/>
  <unicode hex="0142"/>
  <outline>
    <contour>
      <point x="26" y="225" type="line"/>
      <point x="87" y="251"/>
      <point x="146" y="271"/>
      <point x="200" y="287" type="curve"/>
      <point x="248" y="301" type="line"/>
      <point x="302" y="317"/>
      <point x="364" y="333"/>
      <point x="429" y="344" type="curve"/>
      <point x="384" y="498" type="line"/>
      <point x="322" y="472"/>
      <point x="262" y="451"/>
      <point x="208" y="435" type="curve"/>
      <point x="160" y="421" type="line"/>
      <point x="105" y="405"/>
      <point x="46" y="391"/>
      <point x="-19" y="379" type="curve"/>
    </contour>
    <contour>
      <point x="82" y="0" type="curve"/>
      <point x="340" y="0" type="line"/>
      <point x="328" y="69"/>
      <point x="322" y="129"/>
      <point x="322" y="213" type="curve"/>
      <point x="322" y="493" type="line"/>
      <point x="322" y="589"/>
      <point x="333" y="675"/>
      <point x="346" y="752" type="curve"/>
      <point x="65" y="732" type="line"/>
      <point x="91" y="649"/>
      <point x="100" y="572"/>
      <point x="100" y="493" type="curve"/>
      <point x="100" y="213" type="line"/>
      <point x="100" y="129"/>
      <point x="93" y="69"/>
    </contour>
  </outline>
</glyph>
<glyph name="Eng" format="2">
  <advance width="756"/>
  <unicode hex="014A"/>
  <outline>
    <contour>
      <point x="395" y="-192" type="curve"/>
      <point x="629" y="-192" type="line"/>
      <point x="667" y="-145"/>
      <point x="719" y="-73"/>
      <point x="719" y="39" type="curve" smooth="yes"/>
      <point x="719" y="130"/>
      <point x="705" y="227"/>
      <point x="705" y="327" type="curve"/>
      <point x="705" y="474" type="line"/>
      <point x="705" y="569"/>
      <point x="711" y="636"/>
      <point x="724" y="713" type="curve"/>
      <point x="457" y="713" type="line"/>
      <point x="469" y="636"/>
      <point x="476" y="569"/>
      <point x="476" y="474" type="curve"/>
      <point x="476" y="409" type="line"/>
      <point x="459" y="409" type="line"/>
      <point x="385" y="524" type="line"/>
      <point x="349" y="579"/>
      <point x="319" y="639"/>
      <point x="290" y="713" type="curve"/>
      <point x="32" y="713" type="line"/>
      <point x="44" y="636"/>
      <point x="51" y="569"/>
      <point x="51" y="474" type="curve"/>
      <point x="51" y="229" type="line"/>
      <point x="51" y="138"/>
      <point x="44" y="74"/>
      <point x="32" y="0" type="curve"/>
      <point x="299" y="0" type="line"/>
      <point x="286" y="74"/>
      <point x="280" y="138"/>
      <point x="280" y="229" type="curve"/>
      <point x="280" y="304" type="line"/>
      <point x="296" y="304" type="line"/>
      <point x="373" y="188" type="line"/>
      <point x="417" y="121"/>
      <point x="451" y="64"/>
      <point x="474" y="0" type="curve"/>
      <point x="536" y="0" type="line"/>
      <point x="459" y="108" type="line"/>
      <point x="459" y="51" type="line"/>
      <point x="459" y="-34"/>
      <point x="442" y="-117"/>
    </contour>
  </outline>
</glyph>
<glyph name="tbar" format="2">
  <advance width="436"/>
  <unicode hex="0167"/>
  <outline>
    <contour>
      <point x="30" y="174" type="line"/>
      <point x="88" y="184"/>
      <point x="144" y="184"/>
      <point x="193" y="184" type="curve"/>
      <point x="237" y="184" type="line"/>
      <point x="286" y="184"/>
      <point x="342" y="184"/>
      <point x="400" y="174" type="curve"/>
      <point x="400" y="315" type="line"/>
      <point x="342" y="315"/>
      <point x="286" y="315"/>
      <point x="237" y="315" type="curve"/>
      <point x="193" y="315" type="line"/>
      <point x="144" y="315"/>
      <point x="88" y="315"/>
      <point x="30" y="315" type="curve"/>
    </contour>
    <contour>
      <point x="276" y="-16" type="curve" smooth="yes"/>
      <point x="325" y="-16"/>
      <point x="386" y="-3"/>
      <point x="417" y="6" type="curve"/>
      <point x="407" y="162" type="line"/>
      <point x="383" y="149"/>
      <point x="360" y="141"/>
      <point x="343" y="141" type="curve" smooth="yes"/>
      <point x="309" y="141"/>
      <point x="296" y="168"/>
      <point x="296" y="217" type="curve" smooth="yes"/>
      <point x="296" y="450" type="line"/>
      <point x="296" y="550"/>
      <point x="302" y="621"/>
      <point x="314" y="703" type="curve"/>
      <point x="59" y="663" type="line"/>
      <point x="70" y="594"/>
      <point x="77" y="534"/>
      <point x="77" y="450" type="curve"/>
      <point x="77" y="285"/>
      <point x="72" y="216"/>
      <point x="72" y="160" type="curve" smooth="yes"/>
      <point x="72" y="27"/>
      <point x="143" y="-16"/>
    </contour>
    <contour>
      <point x="12" y="331" type="line"/>
      <point x="145" y="343" type="line"/>
      <point x="247" y="343" type="line"/>
      <point x="300" y="343"/>
      <point x="359" y="338"/>
      <point x="417" y="331" type="curve"/>
      <point x="417" y="502" type="line"/>
      <point x="12" y="502" type="line"/>
    </contour>
  </outline>
</glyph>
<glyph name="Schwa" format="2">
  <advance width="773"/>
  <unicode hex="018F"/>
  <outline>
    <contour>
      <point x="381" y="-16" type="curve" smooth="yes"/>
      <point x="626" y="-16"/>
      <point x="749" y="132"/>
      <point x="749" y="356" type="curve" smooth="yes"/>
      <point x="749" y="590"/>
      <point x="619" y="729"/>
      <point x="372" y="729" type="curve" smooth="yes"/>
      <point x="254" y="729"/>
      <point x="152" y="695"/>
      <point x="94" y="679" type="curve"/>
      <point x="114" y="463" type="line"/>
      <point x="181" y="495"/>
      <point x="285" y="530"/>
      <point x="348" y="531" type="curve"/>
      <point x="448" y="523"/>
      <point x="496" y="489"/>
      <point x="503" y="422" type="curve"/>
      <point x="503" y="336" type="line"/>
      <point x="501" y="240"/>
      <point x="460" y="188"/>
      <point x="381" y="182" type="curve"/>
      <point x="293" y="188"/>
      <point x="261" y="250"/>
      <point x="262" y="307" type="curve"/>
      <point x="231" y="272" type="line"/>
      <point x="544" y="272" type="line"/>
      <point x="544" y="434" type="line"/>
      <point x="31" y="434" type="line"/>
      <point x="24" y="346" type="line"/>
      <point x="24" y="157"/>
      <point x="121" y="-16"/>
    </contour>
  </outline>
</glyph>
<glyph name="ringhalfleft" format="2">
  <advance width="201"/>
  <unicode hex="02BF"/>
  <outline>
    <contour>
      <point x="180" y="538" type="curve"/>
      <point x="180" y="623" type="line"/>
      <point x="148" y="628"/>
      <point x="129" y="642"/>
      <point x="129" y="673" type="curve" smooth="yes"/>
      <point x="129" y="699"/>
      <point x="148" y="718"/>
      <point x="181" y="722" type="curve"/>
      <point x="181" y="806" type="line"/>
      <point x="86" y="806"/>
      <point x="25" y="758"/>
      <point x="25" y="674" type="curve" smooth="yes"/>
      <point x="25" y="579"/>
      <point x="86" y="538"/>
    </contour>
  </outline>
</glyph>
<glyph name="verticallinemod" format="2">
  <advance width="230"/>
  <unicode hex="02C8"/>
  <outline>
    <contour>
      <point x="30" y="502" type="curve"/>
      <point x="200" y="502" type="line"/>
      <point x="200" y="598"/>
      <point x="201" y="687"/>
      <point x="215" y="779" type="curve"/>
      <point x="15" y="779" type="line"/>
      <point x="29" y="687"/>
      <point x="30" y="598"/>
    </contour>
  </outline>
</glyph>
<glyph name="circumflexcomb" format="2">
  <unicode hex="0302"/>
  <anchor x="300" y="502" name="_top"/>
  <anchor x="300" y="755" name="top"/>
  <outline>
    <contour>
      <point x="377" y="552" type="curve"/>
      <point x="522" y="554" type="line"/>
      <point x="485" y="627"/>
      <point x="450" y="701"/>
      <point x="426" y="774" type="curve"/>
      <point x="212" y="774" type="line"/>
      <point x="257" y="698"/>
      <point x="314" y="623"/>
    </contour>
    <contour>
      <point x="78" y="554" type="curve"/>
      <point x="226" y="554" type="line"/>
      <point x="288" y="624"/>
      <point x="344" y="699"/>
      <point x="388" y="774" type="curve"/>
      <point x="174" y="774" type="line"/>
      <point x="151" y="701"/>
      <point x="115" y="627"/>
    </contour>
  </outline>
</glyph>
<glyph name="hookabovecomb" format="2">
  <unicode hex="0309"/>
  <anchor x="300" y="502" name="_top"/>
  <anchor x="300" y="813" name="top"/>
  <outline>
    <contour>
      <point x="219" y="554" type="line"/>
      <point x="339" y="554" type="line"/>
      <point x="339" y="566" type="line"/>
      <point x="425" y="592"/>
      <point x="478" y="633"/>
      <point x="478" y="704" type="curve" smooth="yes"/>
      <point x="478" y="790"/>
      <point x="395" y="813"/>
      <point x="311" y="813" type="curve" smooth="yes"/>
      <point x="263" y="813"/>
      <point x="174" y="797"/>
      <point x="145" y="791" type="curve"/>
      <point x="154" y="660" type="line"/>
      <point x="195" y="674"/>
      <point x="255" y="693"/>
      <point x="272" y="693" type="curve"/>
      <point x="295" y="691"/>
      <point x="309" y="685"/>
      <point x="309" y="670" type="curve" smooth="yes"/>
      <point x="309" y="646"/>
      <point x="265" y="627"/>
      <point x="219" y="608" type="curve"/>
    </contour>
  </outline>
</glyph>
<glyph name="hungarumlautcomb" format="2">
  <unicode hex="030B"/>
  <anchor x="300" y="502" name="_top"/>
  <anchor x="300" y="767" name="top"/>
  <outline>
    <contour>
      <point x="320" y="553" type="curve"/>
      <point x="454" y="555" type="line"/>
      <point x="523" y="625"/>
      <point x="586" y="699"/>
      <point x="635" y="776" type="curve"/>
      <point x="409" y="771" type="line"/>
      <point x="386" y="698"/>
      <point x="356" y="626"/>
    </contour>
    <contour>
      <point x="90" y="553" type="curve"/>
      <point x="220" y="555" type="line"/>
      <point x="278" y="625"/>
      <point x="330" y="699"/>
      <point x="369" y="776" type="curve"/>
      <point x="154" y="771" type="line"/>
      <point x="139" y="698"/>
      <point x="118" y="626"/>
    </contour>
  </outline>
</glyph>
<glyph name="dotbelowcomb" format="2">
  <unicode hex="0323"/>
  <anchor x="300" y="0" name="_bottom"/>
  <anchor x="300" y="0" name="bottom"/>
  <outline>
    <contour>
      <point x="300" y="-251" type="curve" smooth="yes"/>
      <point x="388" y="-251"/>
      <point x="425" y="-227"/>
      <point x="425" y="-143" type="curve" smooth="yes"/>
      <point x="425" y="-75"/>
      <point x="388" y="-36"/>
      <point x="301" y="-36" type="curve" smooth="yes"/>
      <point x="213" y="-36"/>
      <point x="176" y="-72"/>
      <point x="176" y="-136" type="curve" smooth="yes"/>
      <point x="176" y="-227"/>
      <point x="213" y="-251"/>
    </contour>
  </outline>
</glyph>
<glyph name="ogonekcomb" format="2">
  <unicode hex="0328"/>
  <anchor x="300" y="0" name="_ogonek"/>
  <outline>
    <contour>
      <point x="232" y="-228" type="curve" smooth="yes"/>
      <point x="254" y="-228"/>
      <point x="292" y="-224"/>
      <point x="308" y="-220" type="curve"/>
      <point x="308" y="-93" type="line"/>
      <point x="301" y="-95"/>
      <point x="288" y="-98"/>
      <point x="271" y="-99" type="curve"/>
      <point x="242" y="-96"/>
      <point x="226" y="-88"/>
      <point x="226" y="-69" type="curve" smooth="yes"/>
      <point x="226" y="-47"/>
      <point x="256" y="-25"/>
      <point x="305" y="0" type="curve"/>
      <point x="260" y="41" type="line"/>
      <point x="149" y="27" type="line"/>
      <point x="149" y="-15" type="line"/>
      <point x="111" y="-31"/>
      <point x="69" y="-69"/>
      <point x="69" y="-128" type="curve" smooth="yes"/>
      <point x="69" y="-184"/>
      <point x="112" y="-228"/>
    </contour>
  </outline>
</glyph>
<glyph name="minute" format="2">
  <advance width="290"/>
  <unicode hex="2032"/>
  <outline>
    <contour>
      <point x="40" y="309" type="curve"/>
      <point x="200" y="310" type="line"/>
      <point x="221" y="440"/>
      <point x="242" y="568"/>
      <point x="274" y="695" type="curve"/>
      <point x="46" y="690" type="line"/>
      <point x="51" y="564"/>
      <point x="46" y="437"/>
    </contour>
  </outline>
</glyph>
<glyph name="colonsign" format="2">
  <advance width="651"/>
  <unicode hex="20A1"/>
  <outline>
    <contour>
      <point x="393" y="-15" type="curve" smooth="yes"/>
      <point x="473" y="-15"/>
      <point x="554" y="7"/>
      <point x="611" y="20" type="curve"/>
      <point x="601" y="237" type="line"/>
      <point x="541" y="196"/>
      <point x="467" y="174"/>
      <point x="427" y="174" type="curve"/>
      <point x="318" y="178"/>
      <point x="268" y="253"/>
      <point x="268" y="344" type="curve" smooth="yes"/>
      <point x="268" y="457"/>
      <point x="330" y="506"/>
      <point x="410" y="509" type="curve"/>
      <point x="442" y="509"/>
      <point x="507" y="489"/>
      <point x="598" y="439" type="curve"/>
      <point x="614" y="658" type="line"/>
      <point x="557" y="678"/>
      <point x="472" y="705"/>
      <point x="381" y="705" type="curve" smooth="yes"/>
      <point x="147" y="705"/>
      <point x="24" y="549"/>
      <point x="24" y="343" type="curve" smooth="yes"/>
      <point x="24" y="120"/>
      <point x="167" y="-15"/>
    </contour>
    <contour>
      <point x="126" y="-137" type="curve"/>
      <point x="286" y="-137" type="line"/>
      <point x="299" y="-38"/>
      <point x="310" y="49"/>
      <point x="324" y="139" type="curve"/>
      <point x="182" y="139" type="line"/>
      <point x="168" y="50"/>
      <point x="151" y="-38"/>
    </contour>
    <contour>
      <point x="315" y="-137" type="curve"/>
      <point x="475" y="-137" type="line"/>
      <point x="481" y="-55"/>
      <point x="488" y="18"/>
      <point x="500" y="93" type="curve"/>
      <point x="357" y="93" type="line"/>
      <point x="346" y="18"/>
      <point x="330" y="-55"/>
    </contour>
    <contour>
      <point x="230" y="604" type="curve"/>
      <point x="372" y="604" type="line"/>
      <point x="382" y="668"/>
      <point x="394" y="733"/>
      <point x="409" y="803" type="curve"/>
      <point x="249" y="803" type="line"/>
      <point x="244" y="733"/>
      <point x="240" y="668"/>
    </contour>
    <contour>
      <point x="405" y="560" type="curve"/>
      <point x="547" y="560" type="line"/>
      <point x="560" y="640"/>
      <point x="576" y="717"/>
      <point x="598" y="803" type="curve"/>
      <point x="438" y="803" type="line"/>
      <point x="427" y="717"/>
      <point x="418" y="640"/>
    </contour>
  </outline>
</glyph>
<glyph name="naira" format="2">
  <advance width="854"/>
  <unicode hex="20A6"/>
  <outline>
    <contour>
      <point x="98" y="0" type="curve"/>
      <point x="353" y="0" type="line"/>
      <point x="336" y="71"/>
      <point x="335" y="133"/>
      <point x="335" y="220" type="curve"/>
      <point x="335" y="300" type="line"/>
      <point x="350" y="300" type="line"/>
      <point x="424" y="182" type="line"/>
      <point x="468" y="112"/>
      <point x="504" y="53"/>
      <point x="520" y="0" type="curve"/>
      <point x="756" y="0" type="line"/>
      <point x="739" y="71"/>
      <point x="738" y="133"/>
      <point x="738" y="220" type="curve"/>
      <point x="738" y="461" type="line"/>
      <point x="738" y="552"/>
      <point x="739" y="617"/>
      <point x="756" y="690" type="curve"/>
      <point x="501" y="690" type="line"/>
      <point x="518" y="617"/>
      <point x="519" y="552"/>
      <point x="519" y="461" type="curve"/>
      <point x="519" y="396" type="line"/>
      <point x="503" y="396" type="line"/>
      <point x="429" y="513" type="line"/>
      <point x="393" y="570"/>
      <point x="357" y="628"/>
      <point x="335" y="690" type="curve"/>
      <point x="98" y="690" type="line"/>
      <point x="115" y="617"/>
      <point x="116" y="552"/>
      <point x="116" y="461" type="curve"/>
      <point x="116" y="220" type="line"/>
      <point x="116" y="133"/>
      <point x="115" y="71"/>
    </contour>
    <contour>
      <point x="25" y="275" type="line"/>
      <point x="99" y="282"/>
      <point x="170" y="283"/>
      <point x="232" y="283" type="curve"/>
      <point x="232" y="433" type="line"/>
      <point x="170" y="433"/>
      <point x="99" y="434"/>
      <point x="25" y="441" type="curve"/>
    </contour>
    <contour>
      <point x="623" y="283" type="line"/>
      <point x="684" y="283"/>
      <point x="755" y="282"/>
      <point x="829" y="275" type="curve"/>
      <point x="829" y="441" type="line"/>
      <point x="755" y="434"/>
      <point x="684" y="433"/>
      <point x="623" y="433" type="curve"/>
    </contour>
  </outline>
</glyph>
<glyph name="euro" format="2">
  <advance width="706"/>
  <unicode hex="20AC"/>
  <outline>
    <contour>
      <point x="458" y="-15" type="curve" smooth="yes"/>
      <point x="534" y="-15"/>
      <point x="612" y="2"/>
      <point x="666" y="12" type="curve"/>
      <point x="656" y="217" type="line"/>
      <point x="599" y="189"/>
      <point x="530" y="174"/>
      <point x="492" y="174" type="curve"/>
      <point x="383" y="178"/>
      <point x="343" y="253"/>
      <point x="343" y="344" type="curve" smooth="yes"/>
      <point x="343" y="457"/>
      <point x="395" y="505"/>
      <point x="475" y="509" type="curve"/>
      <point x="505" y="509"/>
      <point x="567" y="495"/>
      <point x="653" y="460" type="curve"/>
      <point x="670" y="668" type="line"/>
      <point x="615" y="684"/>
      <point x="533" y="705"/>
      <point x="446" y="705" type="curve" smooth="yes"/>
      <point x="212" y="705"/>
      <point x="99" y="549"/>
      <point x="99" y="343" type="curve" smooth="yes"/>
      <point x="99" y="120"/>
      <point x="232" y="-15"/>
    </contour>
    <contour>
      <point x="26" y="223" type="line"/>
      <point x="101" y="230"/>
      <point x="172" y="231"/>
      <point x="234" y="231" type="curve"/>
      <point x="348" y="231" type="line"/>
      <point x="410" y="231"/>
      <point x="481" y="230"/>
      <point x="556" y="228" type="curve"/>
      <point x="556" y="324" type="line"/>
      <point x="481" y="322"/>
      <point x="410" y="321"/>
      <point x="348" y="321" type="curve"/>
      <point x="234" y="321" type="line"/>
      <point x="172" y="321"/>
      <point x="101" y="322"/>
      <point x="26" y="324" type="curve"/>
    </contour>
    <contour>
      <point x="26" y="357" type="line"/>
      <point x="101" y="359"/>
      <point x="172" y="360"/>
      <point x="234" y="360" type="curve"/>
      <point x="378" y="360" type="line"/>
      <point x="440" y="360"/>
      <point x="511" y="359"/>
      <point x="586" y="357" type="curve"/>
      <point x="586" y="453" type="line"/>
      <point x="511" y="451"/>
      <point x="440" y="450"/>
      <point x="378" y="450" type="curve"/>
      <point x="234" y="450" type="line"/>
      <point x="172" y="450"/>
      <point x="101" y="451"/>
      <point x="26" y="458" type="curve"/>
    </contour>
  </outline>
</glyph>
<glyph name="guarani" format="2">
  <advance width="693"/>
  <unicode hex="20B2"/>
  <outline>
    <contour>
      <point x="395" y="-14" type="curve" smooth="yes"/>
      <point x="488" y="-14"/>
      <point x="605" y="4"/>
      <point x="657" y="12" type="curve"/>
      <point x="619" y="222" type="line"/>
      <point x="552" y="184"/>
      <point x="502" y="169"/>
      <point x="417" y="169" type="curve"/>
      <point x="317" y="172"/>
      <point x="266" y="249"/>
      <point x="266" y="343" type="curve" smooth="yes"/>
      <point x="266" y="461"/>
      <point x="336" y="507"/>
      <point x="414" y="510" type="curve"/>
      <point x="449" y="510"/>
      <point x="521" y="490"/>
      <point x="621" y="439" type="curve"/>
      <point x="637" y="658" type="line"/>
      <point x="578" y="678"/>
      <point x="489" y="706"/>
      <point x="394" y="706" type="curve" smooth="yes"/>
      <point x="156" y="706"/>
      <point x="24" y="559"/>
      <point x="24" y="344" type="curve" smooth="yes"/>
      <point x="24" y="130"/>
      <point x="164" y="-14"/>
    </contour>
    <contour>
      <point x="420" y="12" type="curve"/>
      <point x="657" y="12" type="line"/>
      <point x="649" y="87"/>
      <point x="647" y="141"/>
      <point x="647" y="199" type="curve"/>
      <point x="647" y="265"/>
      <point x="653" y="312"/>
      <point x="665" y="366" type="curve"/>
      <point x="410" y="366" type="line"/>
      <point x="426" y="312"/>
      <point x="428" y="265"/>
      <point x="428" y="199" type="curve"/>
      <point x="428" y="141"/>
      <point x="427" y="86"/>
    </contour>
    <contour>
      <point x="295" y="-137" type="curve"/>
      <point x="477" y="-137" type="line"/>
      <point x="469" y="-55"/>
      <point x="466" y="19"/>
      <point x="466" y="93" type="curve"/>
      <point x="306" y="93" type="line"/>
      <point x="306" y="19"/>
      <point x="303" y="-55"/>
    </contour>
    <contour>
      <point x="306" y="604" type="curve"/>
      <point x="466" y="604" type="line"/>
      <point x="466" y="668"/>
      <point x="470" y="733"/>
      <point x="477" y="803" type="curve"/>
      <point x="295" y="803" type="line"/>
      <point x="302" y="733"/>
      <point x="306" y="668"/>
    </contour>
  </outline>
</glyph>
<glyph name="rupeeIndian" format="2">
  <advance width="645"/>
  <unicode hex="20B9"/>
  <outline>
    <contour>
      <point x="304" y="220" type="curve"/>
      <point x="435" y="220"/>
      <point x="493" y="305"/>
      <point x="493" y="391" type="curve" smooth="yes"/>
      <point x="493" y="467"/>
      <point x="464" y="505"/>
      <point x="412" y="524" type="curve"/>
      <point x="412" y="540" type="line"/>
      <point x="451" y="540" type="line"/>
      <point x="498" y="540"/>
      <point x="553" y="538"/>
      <point x="610" y="528" type="curve"/>
      <point x="610" y="690" type="line"/>
      <point x="50" y="690" type="line"/>
      <point x="50" y="528" type="line"/>
      <point x="92" y="538"/>
      <point x="135" y="540"/>
      <point x="177" y="540" type="curve"/>
      <point x="236" y="540"/>
      <point x="259" y="501"/>
      <point x="259" y="433" type="curve" smooth="yes"/>
      <point x="259" y="341"/>
      <point x="223" y="325"/>
      <point x="172" y="325" type="curve"/>
      <point x="131" y="325"/>
      <point x="91" y="325"/>
      <point x="50" y="333" type="curve"/>
      <point x="50" y="235" type="line"/>
      <point x="136" y="235" type="line"/>
      <point x="230" y="224" type="line"/>
      <point x="255" y="224"/>
      <point x="279" y="220"/>
    </contour>
    <contour>
      <point x="279" y="0" type="curve"/>
      <point x="612" y="0" type="line"/>
      <point x="535" y="54"/>
      <point x="455" y="125"/>
      <point x="393" y="181" type="curve"/>
      <point x="248" y="313" type="line"/>
      <point x="50" y="235" type="line"/>
      <point x="166" y="125" type="line"/>
      <point x="207" y="87"/>
      <point x="252" y="44"/>
    </contour>
    <contour>
      <point x="50" y="379" type="line"/>
      <point x="125" y="386"/>
      <point x="196" y="387"/>
      <point x="258" y="387" type="curve"/>
      <point x="402" y="387" type="line"/>
      <point x="464" y="387"/>
      <point x="535" y="386"/>
      <point x="610" y="379" type="curve"/>
      <point x="610" y="485" type="line"/>
      <point x="535" y="478"/>
      <point x="464" y="477"/>
      <point x="402" y="477" type="curve"/>
      <point x="258" y="477" type="line"/>
      <point x="196" y="477"/>
      <point x="125" y="478"/>
      <point x="50" y="485" type="curve"/>
    </contour>
  </outline>
</glyph>
<glyph name="manat" format="2">
  <advance width="786"/>
  <unicode hex="20BC"/>
  <outline>
    <contour>
      <point x="22" y="0" type="curve"/>
      <point x="274" y="0" type="line"/>
      <point x="265" y="71"/>
      <point x="264" y="133"/>
      <point x="264" y="220" type="curve"/>
      <point x="264" y="369"/>
      <point x="297" y="431"/>
      <point x="400" y="438" type="curve"/>
      <point x="499" y="431"/>
      <point x="522" y="368"/>
      <point x="522" y="220" type="curve"/>
      <point x="522" y="133"/>
      <point x="521" y="71"/>
      <point x="512" y="0" type="curve"/>
      <point x="764" y="0" type="line"/>
      <point x="747" y="71"/>
      <point x="746" y="133"/>
      <point x="746" y="220" type="curve"/>
      <point x="746" y="471"/>
      <point x="658" y="626"/>
      <point x="397" y="626" type="curve" smooth="yes"/>
      <point x="136" y="626"/>
      <point x="40" y="471"/>
      <point x="40" y="220" type="curve"/>
      <point x="40" y="133"/>
      <point x="39" y="71"/>
    </contour>
    <contour>
      <point x="321" y="0" type="curve"/>
      <point x="467" y="0" type="line"/>
      <point x="460" y="118"/>
      <point x="459" y="221"/>
      <point x="459" y="329" type="curve"/>
      <point x="459" y="400" type="line"/>
      <point x="459" y="508"/>
      <point x="460" y="611"/>
      <point x="471" y="729" type="curve"/>
      <point x="317" y="729" type="line"/>
      <point x="328" y="611"/>
      <point x="329" y="508"/>
      <point x="329" y="400" type="curve"/>
      <point x="329" y="329" type="line"/>
      <point x="329" y="221"/>
      <point x="328" y="118"/>
    </contour>
  </outline>
</glyph>
<glyph name="Ohm" format="2">
  <advance width="788"/>
  <unicode hex="2126"/>
  <outline>
    <contour>
      <point x="30" y="0" type="line"/>
      <point x="376" y="0" type="line"/>
      <point x="366" y="89"/>
      <point x="364" y="165"/>
      <point x="364" y="274" type="curve"/>
      <point x="335" y="294"/>
      <point x="288" y="353"/>
      <point x="288" y="410" type="curve" smooth="yes"/>
      <point x="288" y="484"/>
      <point x="338" y="520"/>
      <point x="394" y="528" type="curve"/>
      <point x="447" y="520"/>
      <point x="499" y="484"/>
      <point x="499" y="410" type="curve" smooth="yes"/>
      <point x="499" y="353"/>
      <point x="452" y="294"/>
      <point x="424" y="274" type="curve"/>
      <point x="424" y="165"/>
      <point x="422" y="89"/>
      <point x="412" y="0" type="curve"/>
      <point x="758" y="0" type="line"/>
      <point x="758" y="217" type="line"/>
      <point x="710" y="196"/>
      <point x="668" y="192"/>
      <point x="596" y="192" type="curve"/>
      <point x="530" y="192" type="line"/>
      <point x="646" y="99" type="line"/>
      <point x="632" y="154"/>
      <point x="630" y="201"/>
      <point x="630" y="269" type="curve"/>
      <point x="480" y="176" type="line"/>
      <point x="662" y="231"/>
      <point x="755" y="314"/>
      <point x="755" y="445" type="curve" smooth="yes"/>
      <point x="755" y="593"/>
      <point x="626" y="725"/>
      <point x="391" y="725" type="curve" smooth="yes"/>
      <point x="159" y="725"/>
      <point x="32" y="594"/>
      <point x="32" y="445" type="curve" smooth="yes"/>
      <point x="32" y="325"/>
      <point x="112" y="232"/>
      <point x="308" y="176" type="curve"/>
      <point x="158" y="269" type="line"/>
      <point x="158" y="201"/>
      <point x="156" y="154"/>
      <point x="143" y="99" type="curve"/>
      <point x="258" y="192" type="line"/>
      <point x="192" y="192" type="line"/>
      <point x="120" y="192"/>
      <point x="78" y="196"/>
      <point x="30" y="217" type="curve"/>
    </contour>
  </outline>
</glyph>
<glyph name="partialdiff" format="2">
  <advance width="598"/>
  <unicode hex="2202"/>
  <outline>
    <contour>
      <point x="302" y="-16" type="curve" smooth="yes"/>
      <point x="507" y="-16"/>
      <point x="580" y="114"/>
      <point x="580" y="325" type="curve" smooth="yes"/>
      <point x="580" y="616"/>
      <point x="436" y="706"/>
      <point x="259" y="706" type="curve" smooth="yes"/>
      <point x="196" y="706"/>
      <point x="102" y="684"/>
      <point x="51" y="671" type="curve"/>
      <point x="69" y="464" type="line"/>
      <point x="133" y="492"/>
      <point x="212" y="516"/>
      <point x="243" y="516" type="curve"/>
      <point x="331" y="509"/>
      <point x="354" y="467"/>
      <point x="354" y="335" type="curve" smooth="yes"/>
      <point x="354" y="212"/>
      <point x="337" y="165"/>
      <point x="301" y="161" type="curve"/>
      <point x="265" y="165"/>
      <point x="244" y="196"/>
      <point x="244" y="229" type="curve" smooth="yes"/>
      <point x="244" y="261"/>
      <point x="264" y="290"/>
      <point x="300" y="294" type="curve"/>
      <point x="314" y="292"/>
      <point x="342" y="287"/>
      <point x="368" y="260" type="curve"/>
      <point x="414" y="317"/>
      <point x="401" y="376"/>
      <point x="358" y="423" type="curve"/>
      <point x="337" y="404" type="line"/>
      <point x="313" y="422"/>
      <point x="257" y="437"/>
      <point x="213" y="437" type="curve" smooth="yes"/>
      <point x="98" y="437"/>
      <point x="18" y="366"/>
      <point x="18" y="239" type="curve" smooth="yes"/>
      <point x="18" y="105"/>
      <point x="100" y="-16"/>
    </contour>
  </outline>
</glyph>
<glyph name="product" format="2">
  <advance width="841"/>
  <unicode hex="220F"/>
  <outline>
    <contour>
      <point x="464" y="-192" type="curve"/>
      <point x="747" y="-192" type="line"/>
      <point x="734" y="-99"/>
      <point x="728" y="-18"/>
      <point x="728" y="97" type="curve"/>
      <point x="728" y="374" type="line"/>
      <point x="728" y="489"/>
      <point x="734" y="571"/>
      <point x="747" y="664" type="curve"/>
      <point x="747" y="713" type="line"/>
      <point x="464" y="713" type="line"/>
      <point x="464" y="664" type="line"/>
      <point x="477" y="571"/>
      <point x="483" y="489"/>
      <point x="483" y="374" type="curve"/>
      <point x="483" y="97" type="line"/>
      <point x="483" y="-18"/>
      <point x="477" y="-99"/>
    </contour>
    <contour>
      <point x="94" y="-192" type="curve"/>
      <point x="377" y="-192" type="line"/>
      <point x="364" y="-99"/>
      <point x="358" y="-18"/>
      <point x="358" y="97" type="curve"/>
      <point x="358" y="374" type="line"/>
      <point x="358" y="489"/>
      <point x="364" y="571"/>
      <point x="377" y="664" type="curve"/>
      <point x="377" y="713" type="line"/>
      <point x="94" y="713" type="line"/>
      <point x="94" y="664" type="line"/>
      <point x="107" y="571"/>
      <point x="113" y="489"/>
      <point x="113" y="374" type="curve"/>
      <point x="113" y="97" type="line"/>
      <point x="113" y="-18"/>
      <point x="107" y="-99"/>
    </contour>
    <contour>
      <point x="30" y="486" type="line"/>
      <point x="78" y="503"/>
      <point x="129" y="511"/>
      <point x="199" y="511" type="curve"/>
      <point x="642" y="511" type="line"/>
      <point x="712" y="511"/>
      <point x="763" y="503"/>
      <point x="811" y="486" type="curve"/>
      <point x="811" y="713" type="line"/>
      <point x="30" y="713" type="line"/>
    </contour>
  </outline>
</glyph>
<glyph name="divisionslash" format="2">
  <advance width="444"/>
  <unicode hex="2215"/>
  <outline>
    <contour>
      <point x="-1" y="0" type="curve"/>
      <point x="232" y="0" type="line"/>
      <point x="240" y="74"/>
      <point x="257" y="137"/>
      <point x="284" y="228" type="curve"/>
      <point x="357" y="474" type="line"/>
      <point x="386" y="571"/>
      <point x="407" y="636"/>
      <point x="444" y="713" type="curve"/>
      <point x="212" y="713" type="line"/>
      <point x="203" y="636"/>
      <point x="185" y="570"/>
      <point x="157" y="476" type="curve"/>
      <point x="83" y="228" type="line"/>
      <point x="56" y="137"/>
      <point x="35" y="74"/>
    </contour>
  </outline>
</glyph>
<glyph name="infinity" format="2">
  <advance width="922"/>
  <unicode hex="221E"/>
  <outline>
    <contour>
      <point x="660" y="50" type="curve" smooth="yes"/>
      <point x="825" y="50"/>
      <point x="900" y="174"/>
      <point x="900" y="310" type="curve" smooth="yes"/>
      <point x="900" y="456"/>
      <point x="825" y="570"/>
      <point x="660" y="570" type="curve" smooth="yes"/>
      <point x="529" y="570"/>
      <point x="438" y="460"/>
      <point x="380" y="357" type="curve"/>
      <point x="380" y="262" type="line"/>
      <point x="439" y="155"/>
      <point x="536" y="50"/>
    </contour>
    <contour>
      <point x="262" y="50" type="curve" smooth="yes"/>
      <point x="386" y="50"/>
      <point x="483" y="155"/>
      <point x="542" y="262" type="curve"/>
      <point x="542" y="357" type="line"/>
      <point x="484" y="460"/>
      <point x="393" y="570"/>
      <point x="262" y="570" type="curve" smooth="yes"/>
      <point x="97" y="570"/>
      <point x="22" y="456"/>
      <point x="22" y="310" type="curve" smooth="yes"/>
      <point x="22" y="174"/>
      <point x="97" y="50"/>
    </contour>
    <contour>
      <point x="278" y="222" type="curve"/>
      <point x="243" y="226"/>
      <point x="222" y="263"/>
      <point x="222" y="310" type="curve" smooth="yes"/>
      <point x="222" y="361"/>
      <point x="242" y="394"/>
      <point x="277" y="398" type="curve"/>
      <point x="303" y="396"/>
      <point x="327" y="369"/>
      <point x="354" y="310" type="curve"/>
      <point x="327" y="253"/>
      <point x="303" y="224"/>
    </contour>
    <contour>
      <point x="644" y="222" type="curve"/>
      <point x="619" y="224"/>
      <point x="595" y="253"/>
      <point x="568" y="310" type="curve"/>
      <point x="595" y="369"/>
      <point x="619" y="396"/>
      <point x="645" y="398" type="curve"/>
      <point x="680" y="394"/>
      <point x="700" y="361"/>
      <point x="700" y="310" type="curve" smooth="yes"/>
      <point x="700" y="263"/>
      <point x="679" y="226"/>
    </contour>
  </outline>
</glyph>
<glyph name="lessequal" format="2">
  <advance width="590"/>
  <unicode hex="2264"/>
  <outline>
    <contour>
      <point x="550" y="203" type="curve"/>
      <point x="550" y="422" type="line"/>
      <point x="503" y="428"/>
      <point x="456" y="443"/>
      <point x="409" y="458" type="curve"/>
      <point x="335" y="481" type="line"/>
      <point x="335" y="497" type="line"/>
      <point x="409" y="520" type="line"/>
      <point x="456" y="535"/>
      <point x="503" y="550"/>
      <point x="550" y="556" type="curve"/>
      <point x="550" y="775" type="line"/>
      <point x="475" y="739"/>
      <point x="404" y="713"/>
      <point x="342" y="691" type="curve"/>
      <point x="248" y="658" type="line"/>
      <point x="186" y="636"/>
      <point x="115" y="611"/>
      <point x="40" y="594" type="curve"/>
      <point x="40" y="384" type="line"/>
      <point x="115" y="367"/>
      <point x="186" y="342"/>
      <point x="248" y="320" type="curve"/>
      <point x="342" y="287" type="line"/>
      <point x="404" y="265"/>
      <point x="475" y="239"/>
    </contour>
    <contour>
      <point x="40" y="-8" type="line"/>
      <point x="115" y="-1"/>
      <point x="186" y="0"/>
      <point x="248" y="0" type="curve"/>
      <point x="342" y="0" type="line"/>
      <point x="404" y="0"/>
      <point x="475" y="-1"/>
      <point x="550" y="-8" type="curve"/>
      <point x="550" y="198" type="line"/>
      <point x="475" y="191"/>
      <point x="404" y="190"/>
      <point x="342" y="190" type="curve"/>
      <point x="248" y="190" type="line"/>
      <point x="186" y="190"/>
      <point x="115" y="191"/>
      <point x="40" y="198" type="curve"/>
    </contour>
  </outline>
</glyph>
<glyph name="greaterequal" format="2">
  <advance width="590"/>
  <unicode hex="2265"/>
  <outline>
    <contour>
      <point x="40" y="-8" type="line"/>
      <point x="115" y="-1"/>
      <point x="186" y="0"/>
      <point x="248" y="0" type="curve"/>
      <point x="342" y="0" type="line"/>
      <point x="404" y="0"/>
      <point x="475" y="-1"/>
      <point x="550" y="-8" type="curve"/>
      <point x="550" y="198" type="line"/>
      <point x="475" y="191"/>
      <point x="404" y="190"/>
      <point x="342" y="190" type="curve"/>
      <point x="248" y="190" type="line"/>
      <point x="186" y="190"/>
      <point x="115" y="191"/>
      <point x="40" y="198" type="curve"/>
    </contour>
    <contour>
      <point x="40" y="203" type="line"/>
      <point x="115" y="239"/>
      <point x="186" y="265"/>
      <point x="248" y="287" type="curve"/>
      <point x="342" y="320" type="line"/>
      <point x="404" y="342"/>
      <point x="475" y="367"/>
      <point x="550" y="384" type="curve"/>
      <point x="550" y="594" type="line"/>
      <point x="475" y="611"/>
      <point x="404" y="636"/>
      <point x="342" y="658" type="curve"/>
      <point x="248" y="691" type="line"/>
      <point x="186" y="713"/>
      <point x="115" y="739"/>
      <point x="40" y="775" type="curve"/>
      <point x="40" y="556" type="line"/>
      <point x="87" y="550"/>
      <point x="134" y="535"/>
      <point x="181" y="520" type="curve"/>
      <point x="255" y="497" type="line"/>
      <point x="255" y="481" type="line"/>
      <point x="181" y="458" type="line"/>
      <point x="134" y="443"/>
      <point x="87" y="428"/>
      <point x="40" y="422" type="curve"/>
    </contour>
  </outline>
</glyph>
<glyph name="_Q_tail" format="2">
  <advance width="783"/>
  <anchor x="392" y="0" name="_bottom"/>
  <outline>
    <contour>
      <point x="536" y="-185" type="curve"/>
      <point x="796" y="-74" type="line"/>
      <point x="715" y="-40"/>
      <point x="662" y="-7"/>
      <point x="612" y="34" type="curve"/>
      <point x="497" y="128" type="line"/>
      <point x="365" y="-2" type="line"/>
      <point x="435" y="-70" type="line"/>
      <point x="470" y="-104"/>
      <point x="506" y="-143"/>
    </contour>
  </outline>
</glyph>
<glyph name="_exclam" format="2">
  <advance width="295"/>
  <outline>
    <contour>
      <point x="59" y="283" type="curve"/>
      <point x="238" y="285" type="line"/>
      <point x="246" y="438"/>
      <point x="255" y="589"/>
      <point x="275" y="739" type="curve"/>
      <point x="20" y="733" type="line"/>
      <point x="41" y="585"/>
      <point x="51" y="435"/>
    </contour>
  </outline>
</glyph>
<glyph name="_notequal" format="2">
  <advance width="590"/>
  <outline>
    <contour>
      <point x="290" y="-31" type="line"/>
      <point x="302" y="43"/>
      <point x="319" y="112"/>
      <point x="335" y="172" type="curve"/>
      <point x="398" y="408" type="line"/>
      <point x="414" y="468"/>
      <point x="433" y="536"/>
      <point x="460" y="607" type="curve"/>
      <point x="300" y="649" type="line"/>
      <point x="288" y="575"/>
      <point x="270" y="506"/>
      <point x="254" y="447" type="curve"/>
      <point x="190" y="211" type="line"/>
      <point x="174" y="151"/>
      <point x="155" y="83"/>
      <point x="129" y="12" type="curve"/>
    </contour>
  </outline>
</glyph>
<glyph name="_strokeshortcomb.Eth" format="2">
  <advance width="735"/>
  <anchor x="368" y="357" name="_center"/>
  <outline>
    <contour>
      <point x="-16" y="266" type="line"/>
      <point x="47" y="274"/>
      <point x="107" y="276"/>
      <point x="160" y="276" type="curve"/>
      <point x="208" y="276" type="line"/>
      <point x="261" y="276"/>
      <point x="321" y="274"/>
      <point x="384" y="266" type="curve"/>
      <point x="384" y="447" type="line"/>
      <point x="321" y="440"/>
      <point x="261" y="437"/>
      <point x="208" y="437" type="curve"/>
      <point x="160" y="437" type="line"/>
      <point x="107" y="437"/>
      <point x="47" y="440"/>
      <point x="-16" y="447" type="curve"/>
    </contour>
  </outline>
</glyph>
<glyph name="_strokeshortcomb.Tbar" format="2">
  <advance width="735"/>
  <anchor x="368" y="357" name="_center"/>
  <outline>
    <contour>
      <point x="148" y="261" type="line"/>
      <point x="217" y="269"/>
      <point x="283" y="271"/>
      <point x="342" y="271" type="curve"/>
      <point x="394" y="271" type="line"/>
      <point x="453" y="271"/>
      <point x="519" y="269"/>
      <point x="588" y="261" type="curve"/>
      <point x="588" y="452" type="line"/>
      <point x="519" y="445"/>
      <point x="453" y="442"/>
      <point x="394" y="442" type="curve"/>
      <point x="342" y="442" type="line"/>
      <point x="283" y="442"/>
      <point x="217" y="445"/>
      <point x="148" y="452" type="curve"/>
    </contour>
  </outline>
</glyph>
<glyph name="brevecomb.case" format="2">
  <anchor x="300" y="502" name="_top"/>
  <anchor x="300" y="719" name="top"/>
  <outline>
    <contour>
      <point x="299" y="538" type="curve" smooth="yes"/>
      <point x="443" y="538"/>
      <point x="511" y="604"/>
      <point x="511" y="761" type="curve"/>
      <point x="364" y="761" type="line"/>
      <point x="364" y="716"/>
      <point x="345" y="686"/>
      <point x="299" y="680" type="curve"/>
      <point x="254" y="686"/>
      <point x="235" y="716"/>
      <point x="235" y="768" type="curve"/>
      <point x="88" y="761" type="line"/>
      <point x="88" y="604"/>
      <point x="157" y="538"/>
    </contour>
  </outline>
</glyph>
<glyph name="brevecomb_acutecomb.case" format="2">
  <anchor x="300" y="502" name="_top"/>
  <outline>
    <contour>
      <point x="299" y="538" type="curve" smooth="yes"/>
      <point x="443" y="538"/>
      <point x="511" y="598"/>
      <point x="511" y="722" type="curve"/>
      <point x="369" y="722" type="line"/>
      <point x="369" y="701"/>
      <point x="349" y="673"/>
      <point x="299" y="668" type="curve"/>
      <point x="250" y="673"/>
      <point x="230" y="701"/>
      <point x="230" y="728" type="curve"/>
      <point x="88" y="722" type="line"/>
      <point x="88" y="598"/>
      <point x="157" y="538"/>
    </contour>
    <contour>
      <point x="220" y="744" type="curve"/>
      <point x="350" y="745" type="line"/>
      <point x="407" y="806"/>
      <point x="460" y="871"/>
      <point x="500" y="937" type="curve"/>
      <point x="293" y="933" type="line"/>
      <point x="274" y="870"/>
      <point x="250" y="807"/>
    </contour>
  </outline>
</glyph>
<glyph name="brevecomb_tildecomb.case" format="2">
  <anchor x="300" y="502" name="_top"/>
  <outline>
    <contour>
      <point x="299" y="538" type="curve" smooth="yes"/>
      <point x="443" y="538"/>
      <point x="511" y="598"/>
      <point x="511" y="722" type="curve"/>
      <point x="369" y="722" type="line"/>
      <point x="369" y="701"/>
      <point x="349" y="673"/>
      <point x="299" y="668" type="curve"/>
      <point x="250" y="673"/>
      <point x="230" y="701"/>
      <point x="230" y="728" type="curve"/>
      <point x="88" y="722" type="line"/>
      <point x="88" y="598"/>
      <point x="157" y="538"/>
    </contour>
    <contour>
      <point x="385" y="750" type="curve" smooth="yes"/>
      <point x="451" y="750"/>
      <point x="495" y="812"/>
      <point x="495" y="922" type="curve"/>
      <point x="397" y="922" type="line"/>
      <point x="387" y="905"/>
      <point x="373" y="884"/>
      <point x="360" y="882" type="curve"/>
      <point x="339" y="885"/>
      <point x="289" y="941"/>
      <point x="222" y="941" type="curve" smooth="yes"/>
      <point x="152" y="941"/>
      <point x="105" y="879"/>
      <point x="105" y="769" type="curve"/>
      <point x="202" y="769" type="line"/>
      <point x="212" y="784"/>
      <point x="229" y="807"/>
      <point x="243" y="809" type="curve"/>
      <point x="269" y="806"/>
      <point x="312" y="750"/>
    </contour>
  </outline>
</glyph>
<glyph name="caroncomb.alt" format="2">
  <anchor x="300" y="502" name="_topright"/>
  <outline>
    <contour>
      <point x="334" y="547" type="curve"/>
      <point x="424" y="549" type="line"/>
      <point x="465" y="586"/>
      <point x="526" y="654"/>
      <point x="526" y="720" type="curve" smooth="yes"/>
      <point x="526" y="768"/>
      <point x="489" y="800"/>
      <point x="446" y="804" type="curve"/>
      <point x="345" y="795" type="line"/>
      <point x="350" y="758"/>
      <point x="351" y="721"/>
      <point x="351" y="684" type="curve"/>
      <point x="351" y="638"/>
      <point x="345" y="591"/>
    </contour>
  </outline>
</glyph>
<glyph name="circumflexcomb.case" format="2">
  <anchor x="300" y="502" name="_top"/>
  <anchor x="300" y="745" name="top"/>
  <outline>
    <contour>
      <point x="377" y="552" type="curve"/>
      <point x="522" y="554" type="line"/>
      <point x="485" y="620"/>
      <point x="450" y="687"/>
      <point x="426" y="754" type="curve"/>
      <point x="212" y="754" type="line"/>
      <point x="257" y="685"/>
      <point x="314" y="616"/>
    </contour>
    <contour>
      <point x="78" y="554" type="curve"/>
      <point x="226" y="554" type="line"/>
      <point x="288" y="617"/>
      <point x="344" y="686"/>
      <point x="388" y="754" type="curve"/>
      <point x="174" y="754" type="line"/>
      <point x="151" y="687"/>
      <point x="115" y="620"/>
    </contour>
  </outline>
</glyph>
<glyph name="circumflexcomb.narrow" format="2">
  <anchor x="300" y="502" name="_top"/>
  <anchor x="300" y="755" name="top"/>
  <outline>
    <contour>
      <point x="360" y="552" type="curve"/>
      <point x="497" y="554" type="line"/>
      <point x="464" y="627"/>
      <point x="433" y="701"/>
      <point x="412" y="774" type="curve"/>
      <point x="233" y="774" type="line"/>
      <point x="268" y="698"/>
      <point x="311" y="623"/>
    </contour>
    <contour>
      <point x="103" y="554" type="curve"/>
      <point x="243" y="554" type="line"/>
      <point x="291" y="624"/>
      <point x="333" y="699"/>
      <point x="367" y="774" type="curve"/>
      <point x="188" y="774" type="line"/>
      <point x="168" y="701"/>
      <point x="136" y="627"/>
    </contour>
  </outline>
</glyph>
<glyph name="circumflexcomb_gravecomb" format="2">
  <anchor x="300" y="502" name="_top"/>
  <outline>
    <contour>
      <point x="479" y="713" type="curve"/>
      <point x="609" y="714" type="line"/>
      <point x="579" y="779"/>
      <point x="555" y="842"/>
      <point x="536" y="906" type="curve"/>
      <point x="329" y="902" type="line"/>
      <point x="369" y="836"/>
      <point x="422" y="773"/>
    </contour>
    <contour>
      <point x="93" y="554" type="curve"/>
      <point x="231" y="554" type="line"/>
      <point x="289" y="621"/>
      <point x="341" y="692"/>
      <point x="382" y="764" type="curve"/>
      <point x="183" y="764" type="line"/>
      <point x="161" y="694"/>
      <point x="128" y="624"/>
    </contour>
    <contour>
      <point x="372" y="552" type="curve"/>
      <point x="507" y="554" type="line"/>
      <point x="473" y="624"/>
      <point x="440" y="694"/>
      <point x="412" y="764" type="curve"/>
      <point x="218" y="764" type="line"/>
      <point x="260" y="691"/>
      <point x="313" y="620"/>
    </contour>
  </outline>
</glyph>
<glyph name="circumflexcomb_hookabovecomb.case" format="2">
  <anchor x="300" y="502" name="_top"/>
  <outline>
    <contour>
      <point x="93" y="554" type="curve"/>
      <point x="231" y="554" type="line"/>
      <point x="289" y="615"/>
      <point x="341" y="680"/>
      <point x="382" y="745" type="curve"/>
      <point x="183" y="745" type="line"/>
      <point x="161" y="681"/>
      <point x="128" y="617"/>
    </contour>
    <contour>
      <point x="372" y="552" type="curve"/>
      <point x="507" y="554" type="line"/>
      <point x="473" y="617"/>
      <point x="440" y="681"/>
      <point x="417" y="745" type="curve"/>
      <point x="218" y="745" type="line"/>
      <point x="260" y="679"/>
      <point x="313" y="614"/>
    </contour>
    <contour>
      <point x="445" y="697" type="line"/>
      <point x="549" y="697" type="line"/>
      <point x="549" y="707" type="line"/>
      <point x="624" y="720"/>
      <point x="670" y="756"/>
      <point x="670" y="817" type="curve" smooth="yes"/>
      <point x="670" y="892"/>
      <point x="598" y="912"/>
      <point x="525" y="912" type="curve" smooth="yes"/>
      <point x="483" y="912"/>
      <point x="406" y="898"/>
      <point x="381" y="893" type="curve"/>
      <point x="389" y="779" type="line"/>
      <point x="424" y="791"/>
      <point x="476" y="808"/>
      <point x="491" y="808" type="curve"/>
      <point x="511" y="806"/>
      <point x="523" y="801"/>
      <point x="523" y="788" type="curve" smooth="yes"/>
      <point x="523" y="767"/>
      <point x="485" y="750"/>
      <point x="445" y="744" type="curve"/>
    </contour>
  </outline>
</glyph>
<glyph name="colonsign.BRACKET.140" format="2">
  <advance width="651"/>
  <outline>
    <contour>
      <point x="393" y="-15" type="curve" smooth="yes"/>
      <point x="473" y="-15"/>
      <point x="554" y="7"/>
      <point x="611" y="20" type="curve"/>
      <point x="601" y="237" type="line"/>
      <point x="541" y="196"/>
      <point x="467" y="174"/>
      <point x="427" y="174" type="curve"/>
      <point x="318" y="178"/>
      <point x="268" y="253"/>
      <point x="268" y="344" type="curve" smooth="yes"/>
      <point x="268" y="457"/>
      <point x="330" y="506"/>
      <point x="410" y="509" type="curve"/>
      <point x="442" y="509"/>
      <point x="507" y="489"/>
      <point x="598" y="439" type="curve"/>
      <point x="614" y="658" type="line"/>
      <point x="557" y="678"/>
      <point x="472" y="705"/>
      <point x="381" y="705" type="curve" smooth="yes"/>
      <point x="147" y="705"/>
      <point x="24" y="549"/>
      <point x="24" y="343" type="curve" smooth="yes"/>
      <point x="24" y="120"/>
      <point x="167" y="-15"/>
    </contour>
    <contour>
      <point x="108" y="-137" type="curve"/>
      <point x="274" y="-137" type="line"/>
      <point x="288" y="-19"/>
      <point x="308" y="82"/>
      <point x="331" y="190" type="curve"/>
      <point x="391" y="474" type="line"/>
      <point x="414" y="581"/>
      <point x="437" y="685"/>
      <point x="473" y="803" type="curve"/>
      <point x="307" y="803" type="line"/>
      <point x="293" y="685"/>
      <point x="272" y="581"/>
      <point x="249" y="474" type="curve"/>
      <point x="189" y="190" type="line"/>
      <point x="166" y="81"/>
      <point x="144" y="-19"/>
    </contour>
    <contour>
      <point x="291" y="-137" type="curve"/>
      <point x="457" y="-137" type="line"/>
      <point x="471" y="-19"/>
      <point x="491" y="82"/>
      <point x="514" y="190" type="curve"/>
      <point x="574" y="474" type="line"/>
      <point x="597" y="581"/>
      <point x="620" y="685"/>
      <point x="656" y="803" type="curve"/>
      <point x="490" y="803" type="line"/>
      <point x="476" y="685"/>
      <point x="455" y="581"/>
      <point x="432" y="474" type="curve"/>
      <point x="372" y="190" type="line"/>
      <point x="349" y="81"/>
      <point x="327" y="-19"/>
    </contour>
  </outline>
</glyph>
<glyph name="four.dnom" format="2">
  <advance width="466"/>
  <outline>
    <contour>
      <point x="210" y="0" type="curve"/>
      <point x="408" y="0" type="line"/>
      <point x="397" y="47"/>
      <point x="396" y="81"/>
      <point x="396" y="139" type="curve"/>
      <point x="396" y="298" type="line"/>
      <point x="396" y="351"/>
      <point x="397" y="405"/>
      <point x="408" y="462" type="curve"/>
      <point x="218" y="462" type="line"/>
      <point x="207" y="436"/>
      <point x="188" y="409"/>
      <point x="167" y="383" type="curve"/>
      <point x="111" y="310" type="line"/>
      <point x="81" y="273"/>
      <point x="39" y="222"/>
      <point x="15" y="201" type="curve"/>
      <point x="15" y="78" type="line"/>
      <point x="283" y="78" type="line"/>
      <point x="332" y="78"/>
      <point x="402" y="77"/>
      <point x="446" y="67" type="curve"/>
      <point x="446" y="235" type="line"/>
      <point x="402" y="225"/>
      <point x="332" y="224"/>
      <point x="283" y="224" type="curve"/>
      <point x="270" y="204" type="line"/>
      <point x="145" y="204" type="line"/>
      <point x="161" y="196" type="line"/>
      <point x="170" y="221"/>
      <point x="189" y="248"/>
      <point x="208" y="272" type="curve"/>
      <point x="283" y="367" type="line"/>
      <point x="306" y="396"/>
      <point x="329" y="416"/>
      <point x="352" y="435" type="curve"/>
      <point x="235" y="394" type="line"/>
      <point x="242" y="350"/>
      <point x="243" y="306"/>
      <point x="243" y="262" type="curve"/>
      <point x="243" y="159" type="line"/>
      <point x="222" y="139" type="line"/>
      <point x="222" y="81"/>
      <point x="221" y="47"/>
    </contour>
  </outline>
</glyph>
<glyph name="macroncomb.narrow" format="2">
  <anchor x="300" y="502" name="_top"/>
  <anchor x="300" y="717" name="top"/>
  <outline>
    <contour>
      <point x="144" y="555" type="line"/>
      <point x="191" y="561"/>
      <point x="243" y="563"/>
      <point x="300" y="563" type="curve"/>
      <point x="357" y="563"/>
      <point x="409" y="561"/>
      <point x="456" y="555" type="curve"/>
      <point x="456" y="731" type="line"/>
      <point x="409" y="725"/>
      <point x="357" y="723"/>
      <point x="300" y="723" type="curve"/>
      <point x="243" y="723"/>
      <point x="191" y="725"/>
      <point x="144" y="731" type="curve"/>
    </contour>
  </outline>
</glyph>
<glyph name="six.dnom" format="2">
  <advance width="472"/>
  <outline>
    <contour>
      <point x="249" y="-15" type="curve" smooth="yes"/>
      <point x="394" y="-15"/>
      <point x="451" y="68"/>
      <point x="451" y="152" type="curve" smooth="yes"/>
      <point x="451" y="241"/>
      <point x="387" y="288"/>
      <point x="298" y="288" type="curve" smooth="yes"/>
      <point x="263" y="288"/>
      <point x="229" y="280"/>
      <point x="202" y="265" type="curve"/>
      <point x="187" y="265" type="line"/>
      <point x="158" y="240"/>
      <point x="156" y="199"/>
      <point x="188" y="180" type="curve"/>
      <point x="201" y="188"/>
      <point x="220" y="194"/>
      <point x="242" y="194" type="curve"/>
      <point x="266" y="192"/>
      <point x="282" y="182"/>
      <point x="282" y="159" type="curve" smooth="yes"/>
      <point x="282" y="137"/>
      <point x="266" y="126"/>
      <point x="243" y="123" type="curve"/>
      <point x="214" y="129"/>
      <point x="189" y="146"/>
      <point x="189" y="228" type="curve" smooth="yes"/>
      <point x="189" y="309"/>
      <point x="205" y="335"/>
      <point x="277" y="337" type="curve"/>
      <point x="311" y="337"/>
      <point x="366" y="317"/>
      <point x="406" y="304" type="curve"/>
      <point x="419" y="455" type="line"/>
      <point x="387" y="461"/>
      <point x="336" y="477"/>
      <point x="265" y="477" type="curve" smooth="yes"/>
      <point x="131" y="477"/>
      <point x="23" y="418"/>
      <point x="23" y="232" type="curve" smooth="yes"/>
      <point x="23" y="67"/>
      <point x="99" y="-15"/>
    </contour>
  </outline>
</glyph>
<glyph name="tildecomb.narrow" format="2">
  <anchor x="300" y="502" name="_top"/>
  <anchor x="300" y="747" name="top"/>
  <outline>
    <contour>
      <point x="384" y="539" type="curve" smooth="yes"/>
      <point x="450" y="539"/>
      <point x="494" y="611"/>
      <point x="494" y="737" type="curve"/>
      <point x="389" y="737" type="line"/>
      <point x="380" y="719"/>
      <point x="365" y="693"/>
      <point x="356" y="690" type="curve"/>
      <point x="341" y="694"/>
      <point x="289" y="758"/>
      <point x="225" y="758" type="curve" smooth="yes"/>
      <point x="154" y="758"/>
      <point x="106" y="687"/>
      <point x="106" y="560" type="curve"/>
      <point x="210" y="560" type="line"/>
      <point x="221" y="578"/>
      <point x="239" y="603"/>
      <point x="248" y="607" type="curve"/>
      <point x="269" y="603"/>
      <point x="312" y="539"/>
    </contour>
  </outline>
</glyph>
<glyph name="two.dnom" format="2">
  <advance width="436"/>
  <outline>
    <contour>
      <point x="29" y="0" type="line"/>
      <point x="407" y="0" type="line"/>
      <point x="407" y="162" type="line"/>
      <point x="359" y="147"/>
      <point x="308" y="146"/>
      <point x="258" y="146" type="curve"/>
      <point x="195" y="146" type="line"/>
      <point x="214" y="112" type="line"/>
      <point x="277" y="149" type="line"/>
      <point x="368" y="203"/>
      <point x="405" y="260"/>
      <point x="405" y="327" type="curve" smooth="yes"/>
      <point x="405" y="421"/>
      <point x="338" y="477"/>
      <point x="215" y="477" type="curve" smooth="yes"/>
      <point x="158" y="477"/>
      <point x="72" y="456"/>
      <point x="26" y="444" type="curve"/>
      <point x="39" y="281" type="line"/>
      <point x="89" y="309"/>
      <point x="149" y="334"/>
      <point x="173" y="334" type="curve"/>
      <point x="207" y="332"/>
      <point x="225" y="322"/>
      <point x="225" y="298" type="curve" smooth="yes"/>
      <point x="225" y="253"/>
      <point x="176" y="214"/>
      <point x="99" y="160" type="curve"/>
      <point x="79" y="147"/>
      <point x="52" y="130"/>
      <point x="29" y="120" type="curve"/>
    </contour>
  </outline>
</glyph>
